<svg version="1.1" id="Layer_1" xmlns="http://www.w3.org/2000/svg" xmlns:xlink="http://www.w3.org/1999/xlink" x="0px" y="0px"
	 width="100%" viewBox="0 0 430 413" enable-background="new 0 0 430 413" xml:space="preserve">
<path fill="#FCFCFC" opacity="1.000000" stroke="none" 
	d="
M431.000000,141.000000 
	C431.000000,232.333328 431.000000,323.166656 431.000000,414.000000 
	C287.666687,414.000000 144.333389,414.000000 1.000063,414.000000 
	C1.000042,276.333374 1.000042,138.666748 1.000021,1.000100 
	C144.333267,1.000067 287.666534,1.000067 430.999908,1.000033 
	C431.000000,47.500000 431.000000,94.000000 431.000000,141.000000 
M51.364174,125.122566 
	C51.094940,125.355820 51.000313,125.646027 50.922260,126.372208 
	C50.922260,126.372208 50.924732,126.782845 50.419518,127.274559 
	C47.523350,134.026184 44.627178,140.777802 41.245411,148.106155 
	C39.836823,152.740509 38.428234,157.374878 36.586708,162.604950 
	C35.370441,168.027679 34.154175,173.450394 32.304337,179.140778 
	C29.840956,181.524246 26.668196,183.502350 25.035086,186.360260 
	C17.327124,199.849030 29.086628,214.890457 43.182453,213.623962 
	C35.802902,221.759567 28.433908,229.904770 21.037634,238.025131 
	C18.686745,240.606186 16.840559,243.394012 18.355400,246.999069 
	C19.888718,250.648087 23.138996,251.230377 26.680220,251.121521 
	C29.321867,251.040314 31.968014,251.105499 35.035137,251.105499 
	C41.005978,288.110168 57.971638,319.203827 84.655914,344.835358 
	C111.404839,370.528961 143.502106,385.825439 179.526276,392.112244 
	C176.538101,385.156525 172.676941,378.573181 170.981201,371.472748 
	C169.584763,365.625519 166.714157,363.635162 161.493240,362.043732 
	C138.671295,355.087341 118.603020,343.372345 102.097336,325.208710 
	C102.535797,323.461395 102.974258,321.714050 103.948837,320.451508 
	C112.571899,331.356110 127.075798,326.952911 130.344788,316.623474 
	C131.718506,312.282654 133.020599,307.386108 128.005920,303.979004 
	C128.005920,303.979004 128.061768,303.989929 128.598022,303.441772 
	C128.550964,302.949066 128.503891,302.456360 128.853683,301.444214 
	C129.717178,300.189331 130.580688,298.934479 130.876831,298.504089 
	C127.672783,298.038879 124.281898,297.546539 120.167709,296.855225 
	C115.859062,297.614929 111.550407,298.374664 106.647057,298.716400 
	C103.729607,295.824554 100.823799,292.920807 97.885666,290.050140 
	C97.235573,289.414978 96.527496,288.773407 95.722343,288.405945 
	C95.503586,288.306091 94.371994,289.342010 94.455185,289.603821 
	C94.724136,290.450195 95.442093,291.140320 95.844475,291.960571 
	C96.859161,294.028961 99.183838,297.226410 98.537445,298.048828 
	C94.514832,303.166687 96.908737,306.008331 101.469025,309.349823 
	C101.922150,312.565155 102.375275,315.780487 102.061707,318.978424 
	C100.121803,319.038239 97.314186,316.373383 96.147636,320.287292 
	C90.506355,312.701263 83.938477,305.619843 79.461601,297.399658 
	C74.037254,287.439758 70.380203,276.517365 66.567909,265.927917 
	C66.874435,265.492035 67.180962,265.056152 67.487480,264.620239 
	C66.756165,264.408875 66.024849,264.197510 65.006325,263.233154 
	C64.395042,259.815979 63.783764,256.398804 63.552814,252.736389 
	C63.781757,252.524750 63.932487,252.267319 64.880699,251.759918 
	C68.081841,251.750092 71.282974,251.740265 75.159698,252.156860 
	C75.291176,253.394958 75.645500,254.657547 75.512695,255.866623 
	C75.101051,259.614288 77.665291,260.550629 80.574440,262.912628 
	C79.511688,257.595886 78.748779,253.779190 78.296585,249.298798 
	C81.179298,245.600464 80.286835,242.366638 77.362137,239.086563 
	C70.188072,231.040863 63.279114,222.754715 55.967537,214.838638 
	C54.204376,212.929718 51.291653,212.082535 49.384872,210.290848 
	C57.661167,203.599228 59.689838,196.393295 55.750504,187.083450 
	C56.301929,182.750412 56.853355,178.417389 57.786827,173.484818 
	C58.568928,169.994354 59.351028,166.503906 60.563721,162.443924 
	C63.365646,155.291229 66.167572,148.138519 69.476242,140.532196 
	C71.746666,136.463821 73.782173,132.241455 76.330009,128.354919 
	C85.218536,114.796112 94.929207,101.944832 109.535965,93.020981 
	C110.142220,93.245361 110.778557,93.410950 111.349998,93.703369 
	C116.173378,96.171623 120.984909,98.663040 125.445999,101.778427 
	C99.013947,124.275192 84.156746,152.726898 80.486008,187.632980 
	C90.173286,187.632980 98.953156,187.632980 107.826691,187.632980 
	C108.083115,186.951004 108.432953,186.356781 108.525993,185.724747 
	C112.527863,158.542511 125.252518,136.801392 147.811325,120.659744 
	C163.650650,109.326149 181.063110,103.435951 200.358475,102.703270 
	C205.176224,102.520325 210.979782,100.971672 211.555710,108.881577 
	C211.555710,106.974586 211.555710,105.067604 211.555710,102.735558 
	C214.549072,103.259628 217.244476,103.731537 220.033524,104.219841 
	C219.582565,108.258789 219.007675,111.711784 218.851913,115.183586 
	C218.590881,121.002106 222.667130,123.827820 227.524597,120.890923 
	C237.924683,114.602852 248.163162,108.037537 258.313293,101.351166 
	C262.092255,98.861778 262.868073,94.907547 260.130280,91.322716 
	C252.448074,81.263680 244.588287,71.328079 236.415390,61.667961 
	C235.051849,60.056309 231.412445,58.992062 229.472839,59.633823 
	C227.536713,60.274437 225.851913,63.182640 225.076645,65.446007 
	C224.083771,68.344612 224.110657,71.592522 223.647858,75.067360 
	C219.318054,74.674225 215.407852,74.319199 211.482239,73.962769 
	C211.156021,72.498909 210.892365,71.315773 210.368469,68.964859 
	C207.641922,75.537727 202.704910,73.504364 198.490936,73.886459 
	C193.189697,74.367111 187.857391,74.693352 182.608185,75.525696 
	C163.663330,78.529701 146.705170,86.346550 130.949844,96.521721 
	C129.661118,95.684753 128.349655,94.880516 127.088028,94.004517 
	C123.640587,91.610802 120.214134,89.186844 116.915878,86.343933 
	C117.258537,86.057182 117.601196,85.770439 118.576782,85.204781 
	C118.733276,84.813400 118.889763,84.422028 119.012657,84.061050 
	C119.012657,84.061050 119.053596,84.089348 119.738686,84.262978 
	C120.787445,83.754700 121.836205,83.246429 123.258270,83.310860 
	C126.397224,83.476601 128.879990,82.779495 129.426529,78.433800 
	C145.008408,69.343460 162.226440,64.813919 179.785172,60.328384 
	C171.548630,56.358398 163.246796,53.088791 154.938293,49.836178 
	C149.289001,47.624588 143.531921,48.354069 138.223892,50.430672 
	C131.294266,53.141659 124.711586,56.739517 117.429276,59.622257 
	C108.020523,51.211678 96.280182,51.694313 89.130936,60.914024 
	C84.419868,66.989456 84.349579,73.711746 86.229065,81.066811 
	C78.121307,90.325684 70.013550,99.584557 61.341362,109.220566 
	C58.514305,113.789093 55.687248,118.357620 52.345284,123.230789 
	C52.163273,123.795425 51.981262,124.360069 51.364174,125.122566 
M315.685455,103.753540 
	C315.462982,102.835480 315.240509,101.917419 314.995575,100.288849 
	C313.933441,98.633980 313.089264,96.776321 311.771118,95.359688 
	C306.340118,89.522972 297.348633,89.230827 291.182709,94.536568 
	C285.283691,99.612625 284.393250,107.717491 289.148956,114.745300 
	C288.359406,116.442490 287.569855,118.139679 286.662506,120.090111 
	C289.236633,119.472748 291.564056,118.118073 292.647400,118.784821 
	C299.364471,122.918648 305.550903,121.777092 311.476929,117.587753 
	C313.135132,118.955200 314.543671,120.116768 316.200317,121.482933 
	C316.673676,120.273697 317.095886,119.515633 316.986267,119.428795 
	C313.062439,116.320053 314.258423,112.685089 315.653625,108.881020 
	C315.999268,107.938553 315.441986,106.664909 315.301636,105.463142 
	C315.218109,105.133926 315.134583,104.804710 315.685455,103.753540 
M227.164780,40.296162 
	C229.860764,30.075220 225.656967,20.579170 216.671478,16.592634 
	C207.877991,12.691277 197.875504,15.675847 192.483749,23.602921 
	C186.793793,31.968399 189.083786,44.406841 196.254303,49.822227 
	C197.826797,50.717758 199.340393,51.743031 200.981216,52.488079 
	C212.967682,57.930840 225.058090,49.887115 227.164780,40.296162 
M301.197205,360.153778 
	C307.231384,367.073914 314.735260,369.085114 322.508820,365.865662 
	C329.643250,362.910919 334.216461,355.484924 333.323944,347.505493 
	C332.963531,344.283356 331.635162,341.169495 331.350647,337.680878 
	C333.957581,335.145020 336.564514,332.609161 339.752380,329.765472 
	C346.590546,321.336273 353.428680,312.907104 360.796906,304.054779 
	C361.892517,302.385254 362.988159,300.715729 364.615723,298.630463 
	C367.496338,293.085083 370.376953,287.539673 373.711243,281.493774 
	C375.459259,276.988647 377.207275,272.483521 379.325897,267.538544 
	C381.792053,258.322845 384.156921,249.077621 386.825134,239.920792 
	C387.264984,238.411362 388.878479,237.094696 390.215607,236.019913 
	C399.535126,228.528992 399.090942,214.753677 388.804688,207.251923 
	C384.507599,206.307632 380.210480,205.363342 376.362823,203.758728 
	C383.633606,195.521271 390.910919,187.289551 398.171265,179.042892 
	C400.420654,176.487930 402.549042,173.833481 400.931610,170.111816 
	C399.267975,166.283813 395.748627,166.446945 392.410278,166.368713 
	C389.786743,166.307220 387.160614,166.356369 384.879913,166.356369 
	C366.617798,88.422821 317.434143,43.553398 240.749115,26.754356 
	C243.744949,34.149998 247.396210,40.672100 248.903641,47.656872 
	C250.156601,53.462479 252.811081,55.425701 258.079895,57.125809 
	C303.367401,71.738937 334.718292,101.352501 351.699310,145.851868 
	C354.185669,152.367462 355.292816,159.409363 357.256836,167.059845 
	C353.237000,167.059845 350.598969,167.028870 347.962006,167.067825 
	C344.786591,167.114700 341.532928,166.939590 339.924805,170.648911 
	C338.280670,174.441299 340.384186,177.012024 342.647644,179.547562 
	C349.521606,187.247833 356.300140,195.038956 363.377502,202.548080 
	C365.224091,204.507309 368.024078,205.567917 369.964600,207.619873 
	C363.153992,213.381775 361.339020,219.259644 363.966461,227.807602 
	C363.825287,230.727066 364.152405,233.763046 363.460022,236.545349 
	C360.792786,247.263855 357.799500,257.901245 354.377960,268.804535 
	C352.223633,273.487122 350.069305,278.169739 347.392395,283.305206 
	C344.599518,288.205170 341.806610,293.105133 338.385925,298.209869 
	C333.593018,303.809845 328.800110,309.409790 323.400391,315.284515 
	C315.826843,321.466858 308.253265,327.649170 300.022705,334.017914 
	C281.316833,345.287842 261.493805,353.732330 239.680618,358.035522 
	C246.730927,361.508759 254.037323,364.072357 261.000977,367.361542 
	C268.222504,370.772552 275.047333,369.894989 282.748383,367.034637 
	C288.744385,364.552216 294.740387,362.069794 301.197205,360.153778 
M296.654114,313.757446 
	C321.443268,292.185486 335.627625,265.198273 338.995422,232.079834 
	C329.318024,232.079834 320.388824,232.079834 311.527191,232.079834 
	C309.880066,238.709946 308.716156,245.272110 306.608948,251.515976 
	C300.882263,268.484589 290.495422,282.348022 276.428497,294.270386 
	C253.747284,311.092529 228.520248,317.708954 200.463409,313.860718 
	C200.727066,310.392303 200.904968,307.575684 201.164108,304.766602 
	C201.469879,301.451996 201.385635,297.737000 197.825806,296.770874 
	C195.371872,296.104889 191.893921,296.859650 189.637802,298.233948 
	C180.974762,303.511017 172.610168,309.279358 164.153915,314.894104 
	C159.087128,318.258301 158.224701,322.205170 161.703934,327.136444 
	C164.387726,330.940247 167.349426,334.549255 170.216705,338.222076 
	C174.518005,343.731842 178.612564,349.432434 183.297684,354.595734 
	C184.766373,356.214325 188.108215,357.392578 190.128113,356.893219 
	C192.100815,356.405548 193.859436,353.723877 194.998917,351.619232 
	C195.890579,349.972351 195.862762,347.741608 195.937729,345.758759 
	C196.049118,342.811737 197.206619,341.652039 200.289551,341.994873 
	C204.925568,342.510437 209.599243,342.809418 214.263763,342.926086 
	C238.201797,343.524872 260.344360,337.254303 280.787811,324.980377 
	C286.165466,321.751709 292.204498,319.290192 296.654114,313.757446 
M221.349167,367.124695 
	C214.584137,361.799591 207.250839,360.477753 199.533630,364.664490 
	C192.474884,368.493988 188.914719,374.761566 189.441757,382.747498 
	C190.003677,391.261658 194.352097,397.462769 202.583359,400.432373 
	C211.448730,403.630707 218.916794,400.254822 224.907700,392.318542 
	C230.077805,385.469635 228.553970,375.157684 221.349167,367.124695 
M118.632233,201.745605 
	C111.058479,197.219513 103.172661,197.873917 97.167549,203.526901 
	C91.446007,208.912903 89.945854,217.115448 93.414886,224.045685 
	C96.821793,230.851807 104.179092,234.562576 111.695404,232.973495 
	C117.958115,231.649475 123.115456,228.100204 124.648643,221.889252 
	C126.421753,214.706345 126.052185,207.378067 118.632233,201.745605 
M305.514984,190.791733 
	C298.673401,193.860413 294.651215,199.225006 294.495483,206.609680 
	C294.354462,213.296417 297.479492,218.790253 303.510193,222.198898 
	C310.001892,225.868118 318.396637,224.543839 323.662201,219.143509 
	C329.205078,213.458771 330.558105,204.503799 326.858093,197.991776 
	C322.798676,190.847244 315.215454,188.086060 305.514984,190.791733 
M91.185417,280.355194 
	C88.995789,279.558563 86.806160,278.761902 84.616531,277.965271 
	C83.957558,280.171234 82.239349,283.903687 82.827766,284.312012 
	C85.064095,285.863739 88.251747,287.400421 90.692062,286.926331 
	C93.202110,286.438690 93.893356,283.412292 91.185417,280.355194 
M84.267242,268.529144 
	C81.981369,266.213165 81.435883,267.947693 81.973671,269.795441 
	C82.506821,271.627197 83.929977,273.199921 84.962784,274.886261 
	C85.515472,274.666687 86.068161,274.447083 86.620857,274.227509 
	C85.964218,272.505219 85.307579,270.782898 84.267242,268.529144 
z"/>
<path fill="#3A8696" opacity="1.000000" stroke="none" 
	d="
M131.079330,97.270142 
	C146.705170,86.346550 163.663330,78.529701 182.608185,75.525696 
	C187.857391,74.693352 193.189697,74.367111 198.490936,73.886459 
	C202.704910,73.504364 207.641922,75.537727 210.368469,68.964859 
	C210.892365,71.315773 211.156021,72.498909 211.482239,73.962769 
	C215.407852,74.319199 219.318054,74.674225 223.647858,75.067360 
	C224.110657,71.592522 224.083771,68.344612 225.076645,65.446007 
	C225.851913,63.182640 227.536713,60.274437 229.472839,59.633823 
	C231.412445,58.992062 235.051849,60.056309 236.415390,61.667961 
	C244.588287,71.328079 252.448074,81.263680 260.130280,91.322716 
	C262.868073,94.907547 262.092255,98.861778 258.313293,101.351166 
	C248.163162,108.037537 237.924683,114.602852 227.524597,120.890923 
	C222.667130,123.827820 218.590881,121.002106 218.851913,115.183586 
	C219.007675,111.711784 219.582565,108.258789 220.033524,104.219841 
	C217.244476,103.731537 214.549072,103.259628 211.555710,102.735558 
	C211.555710,105.067604 211.555710,106.974586 211.555710,108.881577 
	C210.979782,100.971672 205.176224,102.520325 200.358475,102.703270 
	C181.063110,103.435951 163.650650,109.326149 147.811325,120.659744 
	C125.252518,136.801392 112.527863,158.542511 108.525993,185.724747 
	C108.432953,186.356781 108.083115,186.951004 107.826691,187.632980 
	C98.953156,187.632980 90.173286,187.632980 80.486008,187.632980 
	C84.156746,152.726898 99.013947,124.275192 125.818779,101.239159 
	C127.820816,99.556641 129.450073,98.413391 131.079330,97.270142 
z"/>
<path fill="#3B8597" opacity="1.000000" stroke="none" 
	d="
M48.907574,210.747070 
	C51.291653,212.082535 54.204376,212.929718 55.967537,214.838638 
	C63.279114,222.754715 70.188072,231.040863 77.362137,239.086563 
	C80.286835,242.366638 81.179298,245.600464 77.827759,249.728943 
	C76.400658,250.682861 75.442390,251.206665 74.484116,251.730438 
	C71.282974,251.740265 68.081841,251.750092 64.161125,251.872192 
	C63.351868,252.316849 63.262177,252.649246 63.172485,252.981628 
	C63.783764,256.398804 64.395042,259.815979 65.117241,263.888855 
	C65.471573,265.033508 65.714989,265.522461 65.958412,266.011444 
	C70.380203,276.517365 74.037254,287.439758 79.461601,297.399658 
	C83.938477,305.619843 90.506355,312.701263 96.564232,320.755646 
	C98.644226,322.840515 100.307625,324.457062 101.971016,326.073578 
	C118.603020,343.372345 138.671295,355.087341 161.493240,362.043732 
	C166.714157,363.635162 169.584763,365.625519 170.981201,371.472748 
	C172.676941,378.573181 176.538101,385.156525 179.526276,392.112244 
	C143.502106,385.825439 111.404839,370.528961 84.655914,344.835358 
	C57.971638,319.203827 41.005978,288.110168 35.035137,251.105499 
	C31.968014,251.105499 29.321867,251.040314 26.680220,251.121521 
	C23.138996,251.230377 19.888718,250.648087 18.355400,246.999069 
	C16.840559,243.394012 18.686745,240.606186 21.037634,238.025131 
	C28.433908,229.904770 35.802902,221.759567 43.631954,213.167145 
	C45.690163,212.055908 47.298866,211.401489 48.907574,210.747070 
z"/>
<path fill="#3C8697" opacity="1.000000" stroke="none" 
	d="
M370.386200,207.041229 
	C368.024078,205.567917 365.224091,204.507309 363.377502,202.548080 
	C356.300140,195.038956 349.521606,187.247833 342.647644,179.547562 
	C340.384186,177.012024 338.280670,174.441299 339.924805,170.648911 
	C341.532928,166.939590 344.786591,167.114700 347.962006,167.067825 
	C350.598969,167.028870 353.237000,167.059845 357.256836,167.059845 
	C355.292816,159.409363 354.185669,152.367462 351.699310,145.851868 
	C334.718292,101.352501 303.367401,71.738937 258.079895,57.125809 
	C252.811081,55.425701 250.156601,53.462479 248.903641,47.656872 
	C247.396210,40.672100 243.744949,34.149998 240.749115,26.754356 
	C317.434143,43.553398 366.617798,88.422821 384.879913,166.356369 
	C387.160614,166.356369 389.786743,166.307220 392.410278,166.368713 
	C395.748627,166.446945 399.267975,166.283813 400.931610,170.111816 
	C402.549042,173.833481 400.420654,176.487930 398.171265,179.042892 
	C390.910919,187.289551 383.633606,195.521271 375.942261,204.213501 
	C373.809875,205.459274 372.098022,206.250244 370.386200,207.041229 
z"/>
<path fill="#E9974A" opacity="1.000000" stroke="none" 
	d="
M295.994019,313.839783 
	C292.204498,319.290192 286.165466,321.751709 280.787811,324.980377 
	C260.344360,337.254303 238.201797,343.524872 214.263763,342.926086 
	C209.599243,342.809418 204.925568,342.510437 200.289551,341.994873 
	C197.206619,341.652039 196.049118,342.811737 195.937729,345.758759 
	C195.862762,347.741608 195.890579,349.972351 194.998917,351.619232 
	C193.859436,353.723877 192.100815,356.405548 190.128113,356.893219 
	C188.108215,357.392578 184.766373,356.214325 183.297684,354.595734 
	C178.612564,349.432434 174.518005,343.731842 170.216705,338.222076 
	C167.349426,334.549255 164.387726,330.940247 161.703934,327.136444 
	C158.224701,322.205170 159.087128,318.258301 164.153915,314.894104 
	C172.610168,309.279358 180.974762,303.511017 189.637802,298.233948 
	C191.893921,296.859650 195.371872,296.104889 197.825806,296.770874 
	C201.385635,297.737000 201.469879,301.451996 201.164108,304.766602 
	C200.904968,307.575684 200.727066,310.392303 200.463409,313.860718 
	C228.520248,317.708954 253.747284,311.092529 277.058838,294.311768 
	C279.863220,295.428162 281.982361,297.253326 284.223053,297.417236 
	C288.482697,297.728821 290.069916,300.122711 291.358398,303.619354 
	C292.648438,307.120178 294.428650,310.440399 295.994019,313.839783 
z"/>
<path fill="#E9994D" opacity="1.000000" stroke="none" 
	d="
M296.324066,313.798615 
	C294.428650,310.440399 292.648438,307.120178 291.358398,303.619354 
	C290.069916,300.122711 288.482697,297.728821 284.223053,297.417236 
	C281.982361,297.253326 279.863220,295.428162 277.379089,294.194336 
	C290.495422,282.348022 300.882263,268.484589 306.608948,251.515976 
	C308.716156,245.272110 309.880066,238.709946 311.527191,232.079834 
	C320.388824,232.079834 329.318024,232.079834 338.995422,232.079834 
	C335.627625,265.198273 321.443268,292.185486 296.324066,313.798615 
z"/>
<path fill="#E49953" opacity="1.000000" stroke="none" 
	d="
M61.905792,108.843430 
	C70.013550,99.584557 78.121307,90.325684 86.792526,81.059128 
	C90.972710,86.709114 95.974030,90.359039 102.801201,90.476532 
	C106.194656,90.534927 109.606720,89.511604 112.910385,89.288727 
	C111.464165,90.699776 110.117928,91.799744 108.771690,92.899712 
	C94.929207,101.944832 85.218536,114.796112 76.330009,128.354919 
	C73.782173,132.241455 71.746666,136.463821 68.914932,140.604492 
	C66.377365,138.075958 64.401115,135.475113 62.218517,132.602722 
	C60.774288,132.370239 58.574078,131.873779 56.351753,131.737137 
	C55.595943,131.690659 54.784405,132.550705 53.665230,132.996063 
	C52.888035,132.990540 52.443947,132.985458 51.960033,132.617004 
	C51.614235,130.836563 51.308262,129.419510 51.326233,128.028015 
	C56.037540,129.869064 59.058075,128.906067 60.193615,123.928711 
	C60.332287,123.320862 60.873436,122.812828 61.184177,122.234947 
	C63.176403,118.530045 65.156380,114.818542 66.457153,112.386589 
	C64.497391,110.860947 63.201591,109.852188 61.905792,108.843430 
z"/>
<path fill="#E7984E" opacity="1.000000" stroke="none" 
	d="
M122.884956,82.738144 
	C121.836205,83.246429 120.787445,83.754700 119.340836,83.790825 
	C123.436493,75.332520 123.114616,67.544922 117.979637,59.955795 
	C124.711586,56.739517 131.294266,53.141659 138.223892,50.430672 
	C143.531921,48.354069 149.289001,47.624588 154.938293,49.836178 
	C163.246796,53.088791 171.548630,56.358398 179.785172,60.328384 
	C162.226440,64.813919 145.008408,69.343460 128.871185,78.741928 
	C126.505547,80.279419 124.695251,81.508781 122.884956,82.738144 
z"/>
<path fill="#E6974E" opacity="1.000000" stroke="none" 
	d="
M281.995148,367.001556 
	C275.047333,369.894989 268.222504,370.772552 261.000977,367.361542 
	C254.037323,364.072357 246.730927,361.508759 239.680618,358.035522 
	C261.493805,353.732330 281.316833,345.287842 300.935455,334.117249 
	C302.233246,334.356079 302.618317,334.495605 302.763092,334.898438 
	C299.405701,339.269806 296.283844,343.376099 297.056274,349.406799 
	C297.355774,351.528748 297.707672,353.267670 297.748871,355.146027 
	C292.290466,359.190796 287.142822,363.096191 281.995148,367.001556 
z"/>
<path fill="#E89A50" opacity="1.000000" stroke="none" 
	d="
M354.927765,268.568848 
	C357.799500,257.901245 360.792786,247.263855 363.460022,236.545349 
	C364.152405,233.763046 363.825287,230.727066 363.998199,227.200378 
	C364.520416,226.407623 365.010895,226.222107 365.553284,226.300415 
	C365.698700,226.717270 365.792206,226.870285 365.888123,227.312439 
	C366.152191,228.092621 366.413849,228.583679 366.777588,229.413010 
	C370.206146,235.753387 375.226288,238.162308 382.341980,236.848267 
	C396.618195,231.555664 398.976379,219.173080 388.133026,208.771362 
	C388.598358,208.285126 388.918396,208.056824 389.238434,207.828537 
	C399.090942,214.753677 399.535126,228.528992 390.215607,236.019913 
	C388.878479,237.094696 387.264984,238.411362 386.825134,239.920792 
	C384.156921,249.077621 381.792053,258.322845 378.836792,267.605835 
	C376.459503,265.662415 374.935760,265.200073 371.790436,266.393127 
	C366.008789,268.586151 365.191895,269.621094 368.584229,274.782959 
	C369.268005,275.823395 368.870483,277.574463 368.628601,278.961792 
	C366.013153,276.886597 363.837006,274.724457 361.438629,272.845947 
	C359.401428,271.250336 357.107910,269.981995 354.927765,268.568848 
M375.534668,260.713593 
	C374.959869,260.601898 374.385071,260.490234 373.810272,260.378540 
	C373.805054,260.787140 373.799835,261.195770 373.794617,261.604370 
	C374.372192,261.507019 374.949738,261.409668 375.534668,260.713593 
z"/>
<path fill="#E6974E" opacity="1.000000" stroke="none" 
	d="
M53.998333,132.996521 
	C54.784405,132.550705 55.595943,131.690659 56.351753,131.737137 
	C58.574078,131.873779 60.774288,132.370239 62.218517,132.602722 
	C64.401115,135.475113 66.377365,138.075958 68.661560,140.831314 
	C66.167572,148.138519 63.365646,155.291229 59.980515,162.693848 
	C56.189026,161.336441 54.524986,163.266617 54.324951,165.911072 
	C54.100159,168.882736 51.953812,173.074982 57.404781,174.084351 
	C56.853355,178.417389 56.301929,182.750412 55.421638,187.528305 
	C54.705967,187.990433 54.319160,188.007706 53.686073,187.803650 
	C47.848293,179.689896 42.483288,177.995728 33.010269,180.757233 
	C32.979622,179.877899 32.958763,179.375519 32.937904,178.873123 
	C34.154175,173.450394 35.370441,168.027679 37.074837,162.501099 
	C39.320957,163.828857 41.048424,165.300476 42.849602,166.675507 
	C43.774704,167.381744 45.224865,168.658600 45.750607,168.380142 
	C47.035492,167.699631 48.132816,166.390900 48.906734,165.096542 
	C49.685844,163.793472 50.207359,162.236557 50.436989,160.729218 
	C50.745388,158.704865 51.046490,156.540833 50.634262,154.588028 
	C50.289608,152.955322 48.915382,151.539948 48.347561,149.962402 
	C49.393040,148.487534 50.088043,147.078598 50.783043,145.669647 
	C50.284813,145.450729 49.786583,145.231827 49.288357,145.012909 
	C48.189007,146.341324 47.089661,147.669724 45.587975,148.997803 
	C44.034096,148.508133 42.882553,148.018768 41.731010,147.529419 
	C44.627178,140.777802 47.523350,134.026184 50.692207,127.333740 
	C50.977367,127.596100 50.989830,127.799271 51.002289,128.002441 
	C51.308262,129.419510 51.614235,130.836563 51.685371,132.869019 
	C51.029072,135.868698 50.607609,138.253006 50.186150,140.637329 
	C50.738625,140.728638 51.291100,140.819946 51.843575,140.911270 
	C53.866905,138.688644 55.951420,136.485504 53.998333,132.996521 
M43.435345,170.694656 
	C42.232204,171.615692 41.029064,172.536728 39.825920,173.457779 
	C40.175346,173.838074 40.524773,174.218384 40.874199,174.598679 
	C41.859848,173.447678 42.845497,172.296661 43.435345,170.694656 
z"/>
<path fill="#E2944C" opacity="1.000000" stroke="none" 
	d="
M360.266846,304.477936 
	C353.428680,312.907104 346.590546,321.336273 339.094788,329.865112 
	C333.627197,324.979736 328.817169,319.994751 324.007172,315.009735 
	C328.800110,309.409790 333.593018,303.809845 338.968842,298.509338 
	C342.313599,303.076996 344.957733,307.430573 347.938141,311.540253 
	C348.523285,312.347137 350.432861,312.475159 351.679718,312.359100 
	C352.085114,312.321381 352.886810,310.230133 352.550446,309.554352 
	C350.283905,305.000458 353.896576,303.492737 356.348816,300.967224 
	C357.850281,302.312561 359.058563,303.395264 360.266846,304.477936 
z"/>
<path fill="#E6974B" opacity="1.000000" stroke="none" 
	d="
M354.652863,268.686707 
	C357.107910,269.981995 359.401428,271.250336 361.438629,272.845947 
	C363.837006,274.724457 366.013153,276.886597 368.682983,279.327026 
	C370.472687,280.483612 371.865112,281.238953 373.257538,281.994293 
	C370.376953,287.539673 367.496338,293.085083 364.032166,298.677856 
	C360.942993,297.147125 358.388519,295.640076 355.950806,293.963226 
	C354.572815,293.015320 353.080292,291.992401 352.181061,290.642426 
	C350.545959,288.187622 349.314728,285.463867 347.914978,282.852325 
	C350.069305,278.169739 352.223633,273.487122 354.652863,268.686707 
z"/>
<path fill="#E79B52" opacity="1.000000" stroke="none" 
	d="
M347.653687,283.078766 
	C349.314728,285.463867 350.545959,288.187622 352.181061,290.642426 
	C353.080292,291.992401 354.572815,293.015320 355.950806,293.963226 
	C358.388519,295.640076 360.942993,297.147125 363.766174,298.885742 
	C362.988159,300.715729 361.892517,302.385254 360.531860,304.266357 
	C359.058563,303.395264 357.850281,302.312561 356.348816,300.967224 
	C353.896576,303.492737 350.283905,305.000458 352.550446,309.554352 
	C352.886810,310.230133 352.085114,312.321381 351.679718,312.359100 
	C350.432861,312.475159 348.523285,312.347137 347.938141,311.540253 
	C344.957733,307.430573 342.313599,303.076996 339.282745,298.406952 
	C341.806610,293.105133 344.599518,288.205170 347.653687,283.078766 
z"/>
<path fill="#E89C54" opacity="1.000000" stroke="none" 
	d="
M323.703796,315.147125 
	C328.817169,319.994751 333.627197,324.979736 338.804321,330.019043 
	C336.564514,332.609161 333.957581,335.145020 330.792542,337.649658 
	C322.337860,329.303802 314.034393,327.801422 306.002350,333.305450 
	C304.810516,333.761566 303.906952,334.198364 303.003357,334.635162 
	C302.618317,334.495605 302.233246,334.356079 301.263947,334.024017 
	C308.253265,327.649170 315.826843,321.466858 323.703796,315.147125 
z"/>
<path fill="#407182" opacity="1.000000" stroke="none" 
	d="
M221.609573,367.373047 
	C228.553970,375.157684 230.077805,385.469635 224.907700,392.318542 
	C218.916794,400.254822 211.448730,403.630707 202.583359,400.432373 
	C194.352097,397.462769 190.003677,391.261658 189.441757,382.747498 
	C188.914719,374.761566 192.474884,368.493988 199.533630,364.664490 
	C207.250839,360.477753 214.584137,361.799591 221.609573,367.373047 
M218.153458,395.835236 
	C224.491913,391.222260 226.786545,385.054810 224.996826,377.462616 
	C223.428574,370.809906 217.021332,365.446198 210.390015,365.007507 
	C202.159500,364.463074 195.597656,368.638489 192.837494,376.176422 
	C190.314438,383.066833 192.386551,390.452393 198.123978,395.018768 
	C204.187256,399.844482 211.421509,400.234344 218.153458,395.835236 
z"/>
<path fill="#416376" opacity="1.000000" stroke="none" 
	d="
M117.704453,59.789024 
	C123.114616,67.544922 123.436493,75.332520 118.998291,83.704010 
	C119.053596,84.089348 119.012657,84.061050 118.674103,84.115326 
	C118.204987,84.607635 118.074417,85.045662 117.943848,85.483688 
	C117.601196,85.770439 117.258537,86.057182 116.748474,86.534592 
	C116.581078,86.725250 116.446259,86.879562 116.080482,86.854546 
	C115.147797,87.243813 114.580887,87.658096 114.016037,88.038010 
	C114.018097,88.003647 114.069527,88.049431 113.786240,88.075172 
	C113.324043,88.401123 113.145142,88.701332 112.983536,89.006531 
	C113.000832,89.011520 113.010368,88.977638 113.010368,88.977638 
	C109.606720,89.511604 106.194656,90.534927 102.801201,90.476532 
	C95.974030,90.359039 90.972710,86.709114 87.126762,80.860779 
	C84.349579,73.711746 84.419868,66.989456 89.130936,60.914024 
	C96.280182,51.694313 108.020523,51.211678 117.704453,59.789024 
M117.922508,78.815727 
	C121.434341,72.616653 119.517754,67.022766 115.668121,61.279320 
	C115.224297,60.838669 114.780472,60.398022 113.670738,59.627087 
	C108.983643,56.025928 103.807526,55.106461 98.286278,57.188694 
	C97.315781,57.554691 96.773163,59.055244 96.000916,60.001221 
	C96.000916,60.001221 96.025299,60.038250 95.566887,59.140785 
	C93.337669,60.005657 90.555168,60.470699 92.004356,64.003357 
	C92.004356,64.003357 92.029221,64.034904 91.490509,63.248413 
	C86.254410,68.194893 86.708557,78.561760 92.547112,83.705643 
	C93.549355,84.588638 95.204918,84.730064 96.631752,85.227676 
	C96.631752,85.227676 96.683861,85.280670 96.801048,86.175705 
	C100.559135,86.512024 104.317223,86.848335 108.809799,87.157181 
	C112.100677,84.988914 116.660454,84.134460 117.922508,78.815727 
z"/>
<path fill="#458996" opacity="1.000000" stroke="none" 
	d="
M118.837791,202.049103 
	C126.052185,207.378067 126.421753,214.706345 124.648643,221.889252 
	C123.115456,228.100204 117.958115,231.649475 111.695404,232.973495 
	C104.179092,234.562576 96.821793,230.851807 93.414886,224.045685 
	C89.945854,217.115448 91.446007,208.912903 97.167549,203.526901 
	C103.172661,197.873917 111.058479,197.219513 118.837791,202.049103 
M117.832024,205.570663 
	C117.591194,205.043365 117.350365,204.516052 116.717545,203.358978 
	C109.490410,199.581223 102.965401,200.568192 98.992935,205.993652 
	C98.992935,205.993652 99.038628,205.997375 98.189636,206.077042 
	C95.525299,209.127228 95.515190,209.459167 97.926727,210.610794 
	C97.824532,210.758835 97.699982,210.884781 96.389458,210.462921 
	C96.267105,211.151489 96.144745,211.840057 96.001991,212.497299 
	C96.001991,212.497299 96.034317,212.517517 95.202454,212.182007 
	C95.163101,215.351593 95.095604,218.521988 95.188667,221.687683 
	C95.192337,221.812622 96.726746,221.892563 97.841911,222.430496 
	C97.908287,223.119202 97.974670,223.807907 97.317307,224.559128 
	C98.869392,226.079910 100.421478,227.600693 102.378632,229.617783 
	C103.193314,229.844131 104.007988,230.070496 105.494682,230.711655 
	C110.626694,231.731079 115.070984,230.174377 118.800797,226.746460 
	C119.636848,225.978073 119.600929,224.260910 119.998169,222.998566 
	C119.998169,222.998566 119.974281,222.970901 120.556442,223.673187 
	C124.424400,220.210999 124.248802,215.965073 122.738327,211.570786 
	C122.599388,211.166595 121.242874,211.180939 120.158806,210.516602 
	C119.431946,209.522446 118.705093,208.528290 119.010735,207.256226 
	C118.827255,206.610443 118.643776,205.964661 118.460304,205.318878 
	C117.957886,205.548676 117.455467,205.778488 116.996246,205.991699 
	C116.996246,205.991699 116.987556,206.037125 117.832024,205.570663 
z"/>
<path fill="#EFAA67" opacity="1.000000" stroke="none" 
	d="
M305.869446,190.635132 
	C315.215454,188.086060 322.798676,190.847244 326.858093,197.991776 
	C330.558105,204.503799 329.205078,213.458771 323.662201,219.143509 
	C318.396637,224.543839 310.001892,225.868118 303.510193,222.198898 
	C297.479492,218.790253 294.354462,213.296417 294.495483,206.609680 
	C294.651215,199.225006 298.673401,193.860413 305.869446,190.635132 
M297.542999,202.728333 
	C297.319611,204.475555 296.792572,206.261414 297.007782,207.952835 
	C297.107361,208.735382 298.654358,209.333771 299.850403,210.529602 
	C300.564301,212.168686 301.278229,213.807755 301.578857,216.172455 
	C302.715454,217.420334 303.852051,218.668228 305.558746,220.322906 
	C306.662354,220.612625 307.765930,220.902344 309.748688,221.400650 
	C314.343079,221.845825 318.541260,221.124084 322.258972,217.042511 
	C327.286438,210.877014 327.983734,204.951172 324.408508,198.774963 
	C321.413422,193.601013 315.264557,190.607605 309.085510,192.215042 
	C306.493683,192.889267 304.368530,195.357361 302.007690,197.007523 
	C302.007690,197.007523 302.010681,197.030960 301.319092,196.800476 
	C300.173035,198.526642 299.027008,200.252808 297.542999,202.728333 
M298.903168,213.901382 
	C299.228668,213.726410 299.557129,213.556107 299.868530,213.358856 
	C299.880463,213.351288 299.694977,212.949951 299.657623,212.959198 
	C299.278595,213.052856 298.911194,213.193771 298.903168,213.901382 
z"/>
<path fill="#3F6A7C" opacity="1.000000" stroke="none" 
	d="
M306.290588,333.286163 
	C314.034393,327.801422 322.337860,329.303802 330.490906,337.812408 
	C331.635162,341.169495 332.963531,344.283356 333.323944,347.505493 
	C334.216461,355.484924 329.643250,362.910919 322.508820,365.865662 
	C314.735260,369.085114 307.231384,367.073914 300.855896,359.616028 
	C299.696259,357.721039 298.877930,356.363831 298.059601,355.006622 
	C297.707672,353.267670 297.355774,351.528748 297.368652,349.401611 
	C298.150116,349.010071 298.566803,349.006714 299.071320,349.372253 
	C300.198212,355.649200 302.890320,360.423798 308.441803,363.238525 
	C308.803741,363.497955 309.146240,363.769989 309.913086,364.095306 
	C315.267578,365.434906 319.924683,365.412537 324.063324,361.243805 
	C328.990997,359.323578 330.342438,355.167480 330.993622,350.988251 
	C332.836304,339.161896 321.570251,327.801788 307.086731,334.083679 
	C306.652496,333.632721 306.471527,333.459442 306.290588,333.286163 
z"/>
<path fill="#3A6C7D" opacity="1.000000" stroke="none" 
	d="
M195.922577,49.233620 
	C189.083786,44.406841 186.793793,31.968399 192.483749,23.602921 
	C197.875504,15.675847 207.877991,12.691277 216.671478,16.592634 
	C225.656967,20.579170 229.860764,30.075220 226.622696,40.640518 
	C225.673706,40.976463 225.266785,40.968060 224.888336,40.551987 
	C229.355728,24.889414 215.294510,14.052889 203.288620,18.161222 
	C191.748367,22.110235 188.246201,35.673580 196.040146,47.239159 
	C195.988449,48.170094 195.955521,48.701859 195.922577,49.233620 
z"/>
<path fill="#E59B54" opacity="1.000000" stroke="none" 
	d="
M41.488213,147.817780 
	C42.882553,148.018768 44.034096,148.508133 45.757790,149.242828 
	C46.885658,149.668228 47.441376,149.848282 47.997086,150.028336 
	C48.915382,151.539948 50.289608,152.955322 50.634262,154.588028 
	C51.046490,156.540833 50.745388,158.704865 50.436989,160.729218 
	C50.207359,162.236557 49.685844,163.793472 48.906734,165.096542 
	C48.132816,166.390900 47.035492,167.699631 45.750607,168.380142 
	C45.224865,168.658600 43.774704,167.381744 42.849602,166.675507 
	C41.048424,165.300476 39.320957,163.828857 37.291306,162.203232 
	C38.428234,157.374878 39.836823,152.740509 41.488213,147.817780 
z"/>
<path fill="#EDA764" opacity="1.000000" stroke="none" 
	d="
M53.932350,188.024994 
	C54.319160,188.007706 54.705967,187.990433 55.382477,187.965622 
	C59.689838,196.393295 57.661167,203.599228 49.146225,210.518951 
	C47.298866,211.401489 45.690163,212.055908 43.804352,212.854630 
	C29.086628,214.890457 17.327124,199.849030 25.035086,186.360260 
	C26.668196,183.502350 29.840956,181.524246 32.621120,179.006958 
	C32.958763,179.375519 32.979622,179.877899 32.812611,181.020020 
	C31.466541,182.596512 30.178684,183.412247 29.172060,184.490555 
	C24.195995,189.820892 23.499596,197.349045 27.333796,203.330551 
	C31.018791,209.079285 38.638355,211.940155 44.692101,209.847916 
	C52.981129,206.983185 56.748535,198.085587 53.932350,188.024994 
z"/>
<path fill="#4D808F" opacity="1.000000" stroke="none" 
	d="
M102.828400,318.995819 
	C102.375275,315.780487 101.922150,312.565155 101.610527,308.675079 
	C102.370506,305.260284 102.988983,302.520233 103.553108,300.020966 
	C104.536034,299.784729 105.888893,299.459534 107.241760,299.134369 
	C111.550407,298.374664 115.859062,297.614929 120.517662,297.409729 
	C120.424690,298.307251 119.981758,298.650299 119.563187,298.996704 
	C119.587547,299.000061 119.507248,298.953186 119.127449,298.989929 
	C116.839096,299.049042 114.930534,299.071411 112.665932,299.085876 
	C107.045700,300.799500 104.332466,304.690033 103.371414,309.903900 
	C102.528412,314.477295 104.587883,318.703552 108.023224,319.991852 
	C108.003815,320.004181 108.028290,319.965973 107.724876,320.208282 
	C108.306702,321.242462 109.191940,322.034363 110.370110,322.998291 
	C111.081970,323.339081 111.500900,323.507782 112.079575,323.799500 
	C112.239304,323.922455 112.633232,324.011810 112.633232,324.011810 
	C112.633232,324.011810 113.029350,323.932617 113.452705,324.042114 
	C115.890350,324.040009 117.904633,323.928436 120.265984,323.788025 
	C128.983200,319.483887 130.527527,315.363251 128.042587,303.935425 
	C133.020599,307.386108 131.718506,312.282654 130.344788,316.623474 
	C127.075798,326.952911 112.571899,331.356110 103.629837,320.025146 
	C103.196663,319.360535 103.035851,319.159515 102.828400,318.995819 
z"/>
<path fill="#F3F5F5" opacity="1.000000" stroke="none" 
	d="
M116.446259,86.879562 
	C116.446259,86.879562 116.581078,86.725250 116.680222,86.750061 
	C120.214134,89.186844 123.640587,91.610802 127.088028,94.004517 
	C128.349655,94.880516 129.661118,95.684753 131.014587,96.895927 
	C129.450073,98.413391 127.820816,99.556641 125.995773,100.923698 
	C120.984909,98.663040 116.173378,96.171623 111.349998,93.703369 
	C110.778557,93.410950 110.142220,93.245361 109.153824,92.960342 
	C110.117928,91.799744 111.464165,90.699776 112.910385,89.288727 
	C113.010368,88.977638 113.000832,89.011520 113.269669,88.993294 
	C113.715515,88.666519 113.892525,88.357979 114.069527,88.049431 
	C114.069527,88.049431 114.018097,88.003647 114.373634,88.072533 
	C115.301537,87.720802 115.873901,87.300186 116.446259,86.879562 
z"/>
<path fill="#E49E5E" opacity="1.000000" stroke="none" 
	d="
M51.326233,128.028015 
	C50.989830,127.799271 50.977367,127.596100 50.944817,127.087883 
	C50.924732,126.782845 50.922260,126.372208 51.290337,126.165253 
	C52.107399,125.639641 52.556389,125.320992 53.234360,124.841484 
	C53.262295,124.095802 53.061245,123.510979 52.860191,122.926147 
	C55.687248,118.357620 58.514305,113.789093 61.623577,109.031998 
	C63.201591,109.852188 64.497391,110.860947 66.457153,112.386589 
	C65.156380,114.818542 63.176403,118.530045 61.184177,122.234947 
	C60.873436,122.812828 60.332287,123.320862 60.193615,123.928711 
	C59.058075,128.906067 56.037540,129.869064 51.326233,128.028015 
z"/>
<path fill="#E79B52" opacity="1.000000" stroke="none" 
	d="
M373.484375,281.744019 
	C371.865112,281.238953 370.472687,280.483612 369.025879,279.363068 
	C368.870483,277.574463 369.268005,275.823395 368.584229,274.782959 
	C365.191895,269.621094 366.008789,268.586151 371.790436,266.393127 
	C374.935760,265.200073 376.459503,265.662415 378.651489,267.825775 
	C377.207275,272.483521 375.459259,276.988647 373.484375,281.744019 
z"/>
<path fill="#3F7F8E" opacity="1.000000" stroke="none" 
	d="
M315.299744,105.543495 
	C315.441986,106.664909 315.999268,107.938553 315.653625,108.881020 
	C314.258423,112.685089 313.062439,116.320053 316.986267,119.428795 
	C317.095886,119.515633 316.673676,120.273697 316.200317,121.482933 
	C314.543671,120.116768 313.135132,118.955200 311.476929,117.587753 
	C305.550903,121.777092 299.364471,122.918648 292.647400,118.784821 
	C291.564056,118.118073 289.236633,119.472748 286.662506,120.090111 
	C287.569855,118.139679 288.359406,116.442490 289.377289,114.375023 
	C289.979431,114.010361 290.353241,114.015976 290.954834,114.270447 
	C292.813873,115.619743 294.445160,116.720192 296.428833,118.000412 
	C299.636292,118.135841 302.491394,118.091492 305.728210,118.018402 
	C312.313568,116.159653 313.103607,110.332481 315.299744,105.543495 
z"/>
<path fill="#4D808F" opacity="1.000000" stroke="none" 
	d="
M290.727051,114.021591 
	C290.353241,114.015976 289.979431,114.010361 289.325317,113.999298 
	C284.393250,107.717491 285.283691,99.612625 291.182709,94.536568 
	C297.348633,89.230827 306.340118,89.522972 311.771118,95.359688 
	C313.089264,96.776321 313.933441,98.633980 314.604828,100.696335 
	C313.947693,101.149193 313.681274,101.194572 313.287476,101.126282 
	C313.055450,100.808189 312.915558,100.631699 312.628540,100.149826 
	C306.448517,90.434273 294.848572,90.488930 289.657196,99.870483 
	C286.887817,104.875130 288.149750,109.473404 290.727051,114.021591 
z"/>
<path fill="#3D7283" opacity="1.000000" stroke="none" 
	d="
M196.088440,49.527924 
	C195.955521,48.701859 195.988449,48.170094 196.361633,47.407463 
	C204.908432,53.930363 217.714355,53.255829 224.859879,40.959656 
	C225.266785,40.968060 225.673706,40.976463 226.385880,40.984810 
	C225.058090,49.887115 212.967682,57.930840 200.981216,52.488079 
	C199.340393,51.743031 197.826797,50.717758 196.088440,49.527924 
z"/>
<path fill="#EFAA67" opacity="1.000000" stroke="none" 
	d="
M365.501373,226.036591 
	C365.010895,226.222107 364.520416,226.407623 363.994598,226.830780 
	C361.339020,219.259644 363.153992,213.381775 370.175415,207.330551 
	C372.098022,206.250244 373.809875,205.459274 375.717560,204.543671 
	C380.210480,205.363342 384.507599,206.307632 389.021545,207.540222 
	C388.918396,208.056824 388.598358,208.285126 387.754028,208.699631 
	C377.472839,204.476273 369.931549,207.361816 365.874481,217.367493 
	C365.656555,220.499939 365.578949,223.268265 365.501373,226.036591 
z"/>
<path fill="#DEE6E9" opacity="1.000000" stroke="none" 
	d="
M128.024261,303.957214 
	C130.527527,315.363251 128.983200,319.483887 120.072388,323.572998 
	C119.213135,322.761383 118.535950,321.651489 118.629112,321.582550 
	C120.324593,320.327911 122.112671,319.198364 124.265884,317.979004 
	C128.276306,312.622925 128.066315,309.039398 124.056107,302.953674 
	C123.726776,302.335632 123.126167,301.903229 122.558563,301.281982 
	C122.591568,301.093140 122.974808,301.103760 122.793320,300.828491 
	C122.210899,300.386658 121.809975,300.220123 120.998688,300.124786 
	C120.238503,299.795105 119.888672,299.394226 119.538841,298.993378 
	C119.981758,298.650299 120.424690,298.307251 120.879318,297.509216 
	C124.281898,297.546539 127.672783,298.038879 130.876831,298.504089 
	C130.580688,298.934479 129.717178,300.189331 128.287933,301.708496 
	C127.835373,302.645142 127.948570,303.317535 128.061768,303.989929 
	C128.061768,303.989929 128.005920,303.979004 128.024261,303.957214 
z"/>
<path fill="#F7F8F8" opacity="1.000000" stroke="none" 
	d="
M106.944412,298.925385 
	C105.888893,299.459534 104.536034,299.784729 103.553108,300.020966 
	C102.988983,302.520233 102.370506,305.260284 101.534592,308.291962 
	C96.908737,306.008331 94.514832,303.166687 98.537445,298.048828 
	C99.183838,297.226410 96.859161,294.028961 95.844475,291.960571 
	C95.442093,291.140320 94.724136,290.450195 94.455185,289.603821 
	C94.371994,289.342010 95.503586,288.306091 95.722343,288.405945 
	C96.527496,288.773407 97.235573,289.414978 97.885666,290.050140 
	C100.823799,292.920807 103.729607,295.824554 106.944412,298.925385 
z"/>
<path fill="#F7F8F8" opacity="1.000000" stroke="none" 
	d="
M91.391602,280.668701 
	C93.893356,283.412292 93.202110,286.438690 90.692062,286.926331 
	C88.251747,287.400421 85.064095,285.863739 82.827766,284.312012 
	C82.239349,283.903687 83.957558,280.171234 84.616531,277.965271 
	C86.806160,278.761902 88.995789,279.558563 91.391602,280.668701 
z"/>
<path fill="#ECA35E" opacity="1.000000" stroke="none" 
	d="
M297.748871,355.146027 
	C298.877930,356.363831 299.696259,357.721039 300.625488,359.332825 
	C294.740387,362.069794 288.744385,364.552216 282.371765,367.018097 
	C287.142822,363.096191 292.290466,359.190796 297.748871,355.146027 
z"/>
<path fill="#E59B54" opacity="1.000000" stroke="none" 
	d="
M57.595802,173.784576 
	C51.953812,173.074982 54.100159,168.882736 54.324951,165.911072 
	C54.524986,163.266617 56.189026,161.336441 59.765217,162.978607 
	C59.351028,166.503906 58.568928,169.994354 57.595802,173.784576 
z"/>
<path fill="#EAECED" opacity="1.000000" stroke="none" 
	d="
M315.300690,105.503319 
	C313.103607,110.332481 312.313568,116.159653 305.660583,117.559517 
	C306.223724,115.265099 307.236267,113.400818 308.577301,111.723984 
	C313.034058,110.495705 311.590332,106.875114 312.335815,103.999527 
	C313.035797,104.014130 313.435577,104.031227 314.078003,104.329636 
	C314.564056,104.565788 314.807556,104.520638 315.051086,104.475487 
	C315.134583,104.804710 315.218109,105.133926 315.300690,105.503319 
z"/>
<path fill="#F7F8F8" opacity="1.000000" stroke="none" 
	d="
M74.821915,251.943665 
	C75.442390,251.206665 76.400658,250.682861 77.672394,250.060791 
	C78.748779,253.779190 79.511688,257.595886 80.574440,262.912628 
	C77.665291,260.550629 75.101051,259.614288 75.512695,255.866623 
	C75.645500,254.657547 75.291176,253.394958 74.821915,251.943665 
z"/>
<path fill="#F7F8F8" opacity="1.000000" stroke="none" 
	d="
M102.445053,318.987122 
	C103.035851,319.159515 103.196663,319.360535 103.361778,319.782776 
	C102.974258,321.714050 102.535797,323.461395 102.034180,325.641144 
	C100.307625,324.457062 98.644226,322.840515 96.853424,320.950836 
	C97.314186,316.373383 100.121803,319.038239 102.445053,318.987122 
z"/>
<path fill="#F7F8F8" opacity="1.000000" stroke="none" 
	d="
M84.459091,268.794861 
	C85.307579,270.782898 85.964218,272.505219 86.620857,274.227509 
	C86.068161,274.447083 85.515472,274.666687 84.962784,274.886261 
	C83.929977,273.199921 82.506821,271.627197 81.973671,269.795441 
	C81.435883,267.947693 81.981369,266.213165 84.459091,268.794861 
z"/>
<path fill="#F3F5F5" opacity="1.000000" stroke="none" 
	d="
M123.071609,83.024506 
	C124.695251,81.508781 126.505547,80.279419 128.650391,79.002899 
	C128.879990,82.779495 126.397224,83.476601 123.071609,83.024506 
z"/>
<path fill="#F7F8F8" opacity="1.000000" stroke="none" 
	d="
M66.263161,265.969666 
	C65.714989,265.522461 65.471573,265.033508 65.260849,264.265320 
	C66.024849,264.197510 66.756165,264.408875 67.487488,264.620239 
	C67.180962,265.056152 66.874435,265.492035 66.263161,265.969666 
z"/>
<path fill="#E49953" opacity="1.000000" stroke="none" 
	d="
M52.602737,123.078468 
	C53.061245,123.510979 53.262295,124.095802 52.932514,124.826538 
	C52.200871,124.956520 52.000065,124.940613 51.799255,124.924713 
	C51.981262,124.360069 52.163273,123.795425 52.602737,123.078468 
z"/>
<path fill="#3F7F8E" opacity="1.000000" stroke="none" 
	d="
M315.368286,104.114517 
	C314.807556,104.520638 314.564056,104.565788 314.100769,103.972229 
	C313.725616,102.635666 313.570251,101.937805 313.414886,101.239944 
	C313.681274,101.194572 313.947693,101.149193 314.616089,101.051590 
	C315.240509,101.917419 315.462982,102.835480 315.368286,104.114517 
z"/>
<path fill="#E6974E" opacity="1.000000" stroke="none" 
	d="
M51.581718,125.023636 
	C52.000065,124.940613 52.200871,124.956520 52.703529,124.987381 
	C52.556389,125.320992 52.107399,125.639641 51.369350,125.975739 
	C51.000313,125.646027 51.094940,125.355820 51.581718,125.023636 
z"/>
<path fill="#4D808F" opacity="1.000000" stroke="none" 
	d="
M128.329895,303.715851 
	C127.948570,303.317535 127.835373,302.645142 128.089493,301.968201 
	C128.503891,302.456360 128.550964,302.949066 128.329895,303.715851 
z"/>
<path fill="#E7984E" opacity="1.000000" stroke="none" 
	d="
M118.260315,85.344238 
	C118.074417,85.045662 118.204987,84.607635 118.690903,84.100128 
	C118.889763,84.422028 118.733276,84.813400 118.260315,85.344238 
z"/>
<path fill="#F7F8F8" opacity="1.000000" stroke="none" 
	d="
M63.362648,252.859009 
	C63.262177,252.649246 63.351868,252.316849 63.723282,251.974274 
	C63.932487,252.267319 63.781757,252.524750 63.362648,252.859009 
z"/>
<path fill="#E2944C" opacity="1.000000" stroke="none" 
	d="
M53.665230,132.996063 
	C55.951420,136.485504 53.866905,138.688644 51.843575,140.911270 
	C51.291100,140.819946 50.738625,140.728638 50.186150,140.637329 
	C50.607609,138.253006 51.029072,135.868698 51.725197,133.232391 
	C52.443947,132.985458 52.888035,132.990540 53.665230,132.996063 
z"/>
<path fill="#416376" opacity="1.000000" stroke="none" 
	d="
M298.983490,349.003357 
	C298.566803,349.006714 298.150116,349.010071 297.421082,349.018616 
	C296.283844,343.376099 299.405701,339.269806 302.763092,334.898438 
	C303.906952,334.198364 304.810516,333.761566 306.002350,333.305450 
	C306.471527,333.459442 306.652496,333.632721 306.863129,334.331268 
	C301.785583,338.190765 299.384399,343.037903 298.983490,349.003357 
z"/>
<path fill="#F7F8F8" opacity="1.000000" stroke="none" 
	d="
M381.989441,236.873276 
	C375.226288,238.162308 370.206146,235.753387 367.172333,229.389862 
	C367.989471,229.017059 368.513916,229.005676 369.294434,229.188431 
	C370.258911,229.051193 371.455933,228.860275 371.597992,228.366119 
	C372.686523,224.578934 375.471191,223.533875 379.360168,223.563660 
	C384.361847,223.375183 387.467255,225.004364 387.988953,230.008759 
	C388.010712,230.006866 388.000641,229.964310 387.736542,230.033630 
	C387.265137,230.399261 387.057831,230.695587 386.514343,231.060974 
	C384.740570,231.456757 383.317413,231.945755 381.862244,232.075562 
	C379.062775,232.325317 376.245117,232.371719 373.435028,232.502457 
	C373.447693,233.003815 373.460358,233.505173 373.473022,234.006531 
	C375.339752,234.006531 377.299438,233.660873 379.040314,234.128952 
	C380.186462,234.437119 381.017365,235.917694 381.989441,236.873276 
z"/>
<path fill="#F7F2EE" opacity="1.000000" stroke="none" 
	d="
M382.341980,236.848267 
	C381.017365,235.917694 380.186462,234.437119 379.040314,234.128952 
	C377.299438,233.660873 375.339752,234.006531 373.473022,234.006531 
	C373.460358,233.505173 373.447693,233.003815 373.435028,232.502457 
	C376.245117,232.371719 379.062775,232.325317 381.862244,232.075562 
	C383.317413,231.945755 384.740570,231.456757 386.693146,231.267914 
	C387.472290,230.925339 387.736481,230.444824 388.000641,229.964310 
	C388.000641,229.964310 388.010712,230.006866 388.364014,230.076355 
	C393.012878,224.808029 393.404633,218.999359 389.781464,214.367935 
	C386.122864,209.691223 380.001465,208.082764 374.513855,210.585571 
	C372.079529,212.944595 369.976746,215.161392 367.411011,217.275330 
	C366.636993,217.116104 366.325897,217.059738 366.014801,217.003357 
	C369.931549,207.361816 377.472839,204.476273 387.608734,208.957581 
	C398.976379,219.173080 396.618195,231.555664 382.341980,236.848267 
z"/>
<path fill="#F7F8F8" opacity="1.000000" stroke="none" 
	d="
M365.874481,217.367493 
	C366.325897,217.059738 366.636993,217.116104 367.307465,217.690598 
	C367.735748,221.047226 367.804688,223.885727 367.377686,226.806061 
	C366.549744,226.932999 366.217712,226.978149 365.885712,227.023285 
	C365.792206,226.870285 365.698700,226.717270 365.553284,226.300415 
	C365.578949,223.268265 365.656555,220.499939 365.874481,217.367493 
z"/>
<path fill="#E79B52" opacity="1.000000" stroke="none" 
	d="
M375.531006,261.012970 
	C374.949738,261.409668 374.372192,261.507019 373.794617,261.604370 
	C373.799835,261.195770 373.805054,260.787140 373.810272,260.378540 
	C374.385071,260.490234 374.959869,260.601898 375.531006,261.012970 
z"/>
<path fill="#F7F2EE" opacity="1.000000" stroke="none" 
	d="
M365.888123,227.312424 
	C366.217712,226.978149 366.549744,226.932999 367.527649,227.013367 
	C368.461853,227.757339 368.750122,228.375809 369.038361,228.994293 
	C368.513916,229.005676 367.989471,229.017059 367.070251,229.051575 
	C366.413849,228.583679 366.152191,228.092621 365.888123,227.312424 
z"/>
<path fill="#F7F2EB" opacity="1.000000" stroke="none" 
	d="
M53.686073,187.803650 
	C56.748535,198.085587 52.981129,206.983185 44.692101,209.847916 
	C38.638355,211.940155 31.018791,209.079285 27.333796,203.330551 
	C23.499596,197.349045 24.195995,189.820892 29.172060,184.490555 
	C30.178684,183.412247 31.466541,182.596512 32.822403,181.396942 
	C42.483288,177.995728 47.848293,179.689896 53.686073,187.803650 
M48.561817,203.998962 
	C48.821869,203.721817 49.081921,203.444687 49.904423,202.747299 
	C54.138592,195.558060 53.196007,189.165894 47.257133,184.794708 
	C42.075722,180.981064 35.616474,181.543274 31.066156,186.203964 
	C25.925648,191.469177 25.988842,197.512161 31.474184,204.440552 
	C31.935223,204.679459 32.396259,204.918381 33.270367,205.758453 
	C37.472462,208.062424 41.696434,209.243713 46.553703,205.922577 
	C46.700577,205.613297 46.847446,205.304016 47.558987,204.950500 
	C47.701027,204.628952 47.843063,204.307388 48.561817,203.998962 
z"/>
<path fill="#E2944C" opacity="1.000000" stroke="none" 
	d="
M48.347565,149.962402 
	C47.441376,149.848282 46.885658,149.668228 46.160126,149.243149 
	C47.089661,147.669724 48.189007,146.341324 49.288357,145.012909 
	C49.786583,145.231827 50.284813,145.450729 50.783043,145.669647 
	C50.088043,147.078598 49.393040,148.487534 48.347565,149.962402 
z"/>
<path fill="#E59B54" opacity="1.000000" stroke="none" 
	d="
M43.633247,170.920166 
	C42.845497,172.296661 41.859848,173.447678 40.874199,174.598679 
	C40.524773,174.218384 40.175346,173.838074 39.825920,173.457779 
	C41.029064,172.536728 42.232204,171.615692 43.633247,170.920166 
z"/>
<path fill="#F3F7F8" opacity="1.000000" stroke="none" 
	d="
M217.792755,395.947266 
	C211.421509,400.234344 204.187256,399.844482 198.123978,395.018768 
	C192.386551,390.452393 190.314438,383.066833 192.837494,376.176422 
	C195.597656,368.638489 202.159500,364.463074 210.390015,365.007507 
	C217.021332,365.446198 223.428574,370.809906 224.996826,377.462616 
	C226.786545,385.054810 224.491913,391.222260 217.792755,395.947266 
M218.883438,372.714050 
	C212.150314,366.734589 205.196716,366.220367 199.761490,371.299988 
	C193.852341,376.822540 193.375504,384.474701 198.544617,390.827515 
	C200.881149,384.282837 201.455933,383.547302 211.274979,383.691071 
	C213.991516,383.730865 216.661346,386.961365 219.707169,388.960632 
	C223.212784,385.991364 223.447220,380.206512 218.883438,372.714050 
M207.685196,393.956421 
	C205.904236,393.551910 204.123291,393.147400 201.793167,392.618134 
	C203.818298,397.038666 207.411606,396.057251 210.388504,395.910248 
	C211.999619,395.830658 213.553528,394.592529 215.133224,393.877045 
	C214.916016,393.542175 214.698807,393.207336 214.481598,392.872467 
	C212.487442,393.233490 210.493271,393.594513 207.685196,393.956421 
M217.405609,391.636780 
	C216.979477,391.801605 216.553345,391.966431 216.127213,392.131256 
	C216.266342,392.487579 216.405472,392.843933 216.544601,393.200256 
	C216.809708,392.849670 217.074814,392.499115 217.405609,391.636780 
M199.797150,392.743622 
	C199.958603,392.624237 200.120056,392.504852 200.281509,392.385498 
	C200.055862,392.410400 199.830215,392.435272 199.797150,392.743622 
z"/>
<path fill="#3A596D" opacity="1.000000" stroke="none" 
	d="
M114.336655,59.957375 
	C114.780472,60.398022 115.224297,60.838669 115.322876,61.336967 
	C114.904335,62.348423 114.426697,63.538364 114.823418,64.217705 
	C117.389343,68.611588 117.597076,73.106979 115.614708,77.952927 
	C114.597786,79.056595 113.854584,80.001053 113.037827,80.583389 
	C111.813934,74.613800 108.049332,73.717972 102.947449,73.943123 
	C97.512550,74.182968 95.721550,75.411438 95.316879,81.227333 
	C95.110191,81.640472 95.030418,81.807175 94.617622,81.859001 
	C93.063622,78.939552 91.169739,76.218513 90.808281,73.307228 
	C90.436546,70.313141 91.560028,67.133400 92.029221,64.034904 
	C92.029221,64.034904 92.004356,64.003357 92.365295,64.167854 
	C93.825920,62.900986 94.925613,61.469620 96.025299,60.038254 
	C96.025299,60.038250 96.000916,60.001221 96.286926,60.315002 
	C101.601402,58.290138 106.549271,57.914627 111.439766,61.068981 
	C112.735664,61.904831 114.497551,63.240875 114.336655,59.957375 
M99.849304,65.284721 
	C98.913864,68.782150 100.036911,71.635788 103.653824,71.881058 
	C105.176598,71.984322 107.584343,69.669601 108.263351,67.934853 
	C108.734894,66.730141 107.232483,63.497284 106.094818,63.208591 
	C104.330658,62.760933 102.125679,64.050407 99.849304,65.284721 
z"/>
<path fill="#F3F5F5" opacity="1.000000" stroke="none" 
	d="
M95.443794,80.980888 
	C95.721550,75.411438 97.512550,74.182968 102.947449,73.943123 
	C108.049332,73.717972 111.813934,74.613800 112.681213,80.741013 
	C108.736488,81.614883 107.350616,83.629707 108.075310,87.184654 
	C104.317223,86.848335 100.559135,86.512024 97.140305,85.655441 
	C97.922935,84.399956 98.366325,83.664734 98.809708,82.929520 
	C98.207611,82.953880 97.605522,82.978233 97.001587,83.001144 
	C96.999741,82.999695 96.996246,82.995201 96.979233,82.706871 
	C96.456078,81.939323 95.949936,81.460106 95.443794,80.980888 
z"/>
<path fill="#F3F5F5" opacity="1.000000" stroke="none" 
	d="
M91.759857,63.641659 
	C91.560028,67.133400 90.436546,70.313141 90.808281,73.307228 
	C91.169739,76.218513 93.063622,78.939552 94.880508,81.973442 
	C95.983025,82.466904 96.489639,82.731049 96.996246,82.995201 
	C96.996246,82.995201 96.999741,82.999695 96.996475,83.385185 
	C96.848366,84.251801 96.703529,84.732925 96.558685,85.214050 
	C95.204918,84.730064 93.549355,84.588638 92.547112,83.705643 
	C86.708557,78.561760 86.254410,68.194893 91.759857,63.641659 
z"/>
<path fill="#F3F5F5" opacity="1.000000" stroke="none" 
	d="
M114.003693,59.792229 
	C114.497551,63.240875 112.735664,61.904831 111.439766,61.068981 
	C106.549271,57.914627 101.601402,58.290138 96.302940,60.330315 
	C96.773163,59.055244 97.315781,57.554691 98.286278,57.188694 
	C103.807526,55.106461 108.983643,56.025928 114.003693,59.792229 
z"/>
<path fill="#EAECED" opacity="1.000000" stroke="none" 
	d="
M108.442551,87.170914 
	C107.350616,83.629707 108.736488,81.614883 112.754753,81.103134 
	C113.854584,80.001053 114.597786,79.056595 115.762222,78.227547 
	C116.511696,78.590149 116.839935,78.837341 117.168175,79.084534 
	C116.660454,84.134460 112.100677,84.988914 108.442551,87.170914 
z"/>
<path fill="#F3F5F5" opacity="1.000000" stroke="none" 
	d="
M117.545341,78.950134 
	C116.839935,78.837341 116.511696,78.590149 116.035934,78.068344 
	C117.597076,73.106979 117.389343,68.611588 114.823418,64.217705 
	C114.426697,63.538364 114.904335,62.348423 115.490799,61.500778 
	C119.517754,67.022766 121.434341,72.616653 117.545341,78.950134 
z"/>
<path fill="#F3F5F5" opacity="1.000000" stroke="none" 
	d="
M95.796097,59.589520 
	C94.925613,61.469620 93.825920,62.900986 92.383545,64.176239 
	C90.555168,60.470699 93.337669,60.005657 95.796097,59.589520 
z"/>
<path fill="#EAECED" opacity="1.000000" stroke="none" 
	d="
M96.595215,85.220863 
	C96.703529,84.732925 96.848366,84.251801 96.998322,83.386627 
	C97.605522,82.978233 98.207611,82.953880 98.809708,82.929520 
	C98.366325,83.664734 97.922935,84.399956 97.081711,85.207916 
	C96.683861,85.280670 96.631752,85.227676 96.595215,85.220863 
z"/>
<path fill="#E49953" opacity="1.000000" stroke="none" 
	d="
M116.080490,86.854553 
	C115.873901,87.300186 115.301537,87.720802 114.371582,88.106903 
	C114.580887,87.658096 115.147797,87.243813 116.080490,86.854553 
z"/>
<path fill="#E49953" opacity="1.000000" stroke="none" 
	d="
M113.786240,88.075172 
	C113.892525,88.357979 113.715515,88.666519 113.252373,88.988304 
	C113.145142,88.701332 113.324043,88.401123 113.786240,88.075172 
z"/>
<path fill="#3F7F8E" opacity="1.000000" stroke="none" 
	d="
M97.553085,210.988617 
	C97.699982,210.884781 97.824532,210.758835 98.122833,210.087219 
	C98.558838,208.374878 98.798729,207.186127 99.038620,205.997375 
	C99.038628,205.997375 98.992935,205.993652 99.250946,206.415588 
	C104.740326,203.867142 110.094597,202.239502 116.000435,205.541199 
	C116.366249,205.967041 116.655670,206.064896 116.987556,206.037125 
	C116.987556,206.037125 116.996246,205.991699 117.098053,206.283203 
	C117.459320,206.894516 117.718781,207.214325 117.978241,207.534134 
	C118.705093,208.528290 119.431946,209.522446 120.423065,211.097717 
	C120.449638,215.442841 120.211960,219.206879 119.974281,222.970901 
	C119.974281,222.970901 119.998169,222.998566 119.626549,222.963730 
	C118.425285,222.640579 117.450127,222.538879 116.794373,222.027557 
	C115.097908,220.704773 113.641640,218.131287 111.911858,217.970718 
	C106.732193,217.489960 101.039352,217.131241 99.701447,224.430222 
	C99.679527,224.549789 98.617638,224.478729 98.041046,224.496613 
	C97.974670,223.807907 97.908287,223.119202 97.537933,221.819656 
	C96.834084,218.311722 96.434204,215.414612 96.034317,212.517517 
	C96.034317,212.517517 96.001991,212.497299 96.384155,212.407562 
	C97.028580,211.874771 97.290833,211.431686 97.553085,210.988617 
M106.457344,215.348007 
	C109.261208,217.130081 111.546684,215.962448 112.495026,213.394409 
	C113.040649,211.916901 112.501923,209.162064 111.394142,208.201813 
	C110.323784,207.274048 107.412064,207.182556 106.165672,208.011505 
	C103.493797,209.788513 103.768936,212.461792 106.457344,215.348007 
z"/>
<path fill="#F3F7F8" opacity="1.000000" stroke="none" 
	d="
M97.679176,224.527863 
	C98.617638,224.478729 99.679527,224.549789 99.701447,224.430222 
	C101.039352,217.131241 106.732193,217.489960 111.911858,217.970718 
	C113.641640,218.131287 115.097908,220.704773 116.794373,222.027557 
	C117.450127,222.538879 118.425285,222.640579 119.610687,222.954712 
	C119.600929,224.260910 119.636848,225.978073 118.800797,226.746460 
	C115.070984,230.174377 110.626694,231.731079 105.414200,230.175232 
	C107.541626,229.163910 109.749527,228.689011 111.957436,228.214127 
	C111.901573,227.702240 111.845718,227.190353 111.789856,226.678467 
	C108.570442,226.678467 105.351036,226.678467 101.973557,226.678467 
	C101.973557,227.139481 101.973557,228.130493 101.973557,229.121490 
	C100.421478,227.600693 98.869392,226.079910 97.679176,224.527863 
M114.818687,226.962540 
	C114.724892,226.558853 114.631096,226.155151 114.537292,225.751465 
	C114.417648,225.839981 114.187012,225.943588 114.196663,226.014542 
	C114.252380,226.424210 114.364861,226.826157 114.818687,226.962540 
z"/>
<path fill="#F3F7F8" opacity="1.000000" stroke="none" 
	d="
M115.881577,205.338821 
	C110.094597,202.239502 104.740326,203.867142 99.255157,206.438126 
	C102.965401,200.568192 109.490410,199.581223 116.639679,203.828369 
	C116.335075,204.644775 116.108330,204.991806 115.881577,205.338821 
z"/>
<path fill="#E8EEF0" opacity="1.000000" stroke="none" 
	d="
M102.176094,229.369629 
	C101.973557,228.130493 101.973557,227.139481 101.973557,226.678467 
	C105.351036,226.678467 108.570442,226.678467 111.789856,226.678467 
	C111.845718,227.190353 111.901573,227.702240 111.957436,228.214127 
	C109.749527,228.689011 107.541626,229.163910 105.078186,229.967834 
	C104.007988,230.070496 103.193314,229.844131 102.176094,229.369629 
z"/>
<path fill="#F3F7F8" opacity="1.000000" stroke="none" 
	d="
M120.265366,223.322052 
	C120.211960,219.206879 120.449638,215.442841 120.569534,211.339874 
	C121.242874,211.180939 122.599388,211.166595 122.738327,211.570786 
	C124.248802,215.965073 124.424400,220.210999 120.265366,223.322052 
z"/>
<path fill="#F3F7F8" opacity="1.000000" stroke="none" 
	d="
M95.618385,212.349762 
	C96.434204,215.414612 96.834084,218.311722 97.390945,221.601135 
	C96.726746,221.892563 95.192337,221.812622 95.188667,221.687683 
	C95.095604,218.521988 95.163101,215.351593 95.618385,212.349762 
z"/>
<path fill="#F3F7F8" opacity="1.000000" stroke="none" 
	d="
M98.614128,206.037201 
	C98.798729,207.186127 98.558838,208.374878 98.188774,209.971313 
	C95.515190,209.459167 95.525299,209.127228 98.614128,206.037201 
z"/>
<path fill="#E8EEF0" opacity="1.000000" stroke="none" 
	d="
M118.494492,207.395172 
	C117.718781,207.214325 117.459320,206.894516 117.076454,206.291504 
	C117.455467,205.778488 117.957886,205.548676 118.460297,205.318878 
	C118.643776,205.964661 118.827255,206.610443 118.494492,207.395172 
z"/>
<path fill="#E8EEF0" opacity="1.000000" stroke="none" 
	d="
M116.000443,205.541199 
	C116.108330,204.991806 116.335075,204.644775 116.835678,204.143250 
	C117.350365,204.516052 117.591194,205.043365 117.409790,205.803894 
	C116.655670,206.064896 116.366249,205.967041 116.000443,205.541199 
z"/>
<path fill="#F3F7F8" opacity="1.000000" stroke="none" 
	d="
M96.971268,210.725769 
	C97.290833,211.431686 97.028580,211.874771 96.394363,212.423233 
	C96.144745,211.840057 96.267105,211.151489 96.971268,210.725769 
z"/>
<path fill="#ECA35E" opacity="1.000000" stroke="none" 
	d="
M301.992157,215.446823 
	C301.278229,213.807755 300.564301,212.168686 299.559326,209.845917 
	C299.429321,206.810547 299.590424,204.458832 299.905823,201.847992 
	C300.710297,200.069550 301.360474,198.550247 302.010681,197.030945 
	C302.010681,197.030960 302.007690,197.007523 302.402435,197.137054 
	C306.263000,196.520309 309.703888,195.615417 313.200562,195.065079 
	C318.373810,194.250854 321.257233,197.358627 323.020752,201.620316 
	C325.205292,206.899338 323.989136,211.741348 320.030884,214.479187 
	C319.108612,208.007385 314.759399,207.949341 309.971680,208.078156 
	C305.241028,208.205414 303.933777,211.173065 303.199402,215.241119 
	C303.087311,215.659134 303.034637,215.824173 302.696411,215.923187 
	C302.271240,215.720383 302.131683,215.583603 301.992157,215.446823 
M308.085693,203.863968 
	C309.943268,204.554840 311.800842,205.245712 313.658417,205.936584 
	C314.261749,204.227448 315.683746,202.251083 315.237640,200.884476 
	C314.793243,199.522995 312.474670,198.773239 310.977814,197.755264 
	C309.957611,199.531342 308.937408,201.307434 308.085693,203.863968 
z"/>
<path fill="#F8F7F4" opacity="1.000000" stroke="none" 
	d="
M303.258789,214.988159 
	C303.933777,211.173065 305.241028,208.205414 309.971680,208.078156 
	C314.759399,207.949341 319.108612,208.007385 320.064270,214.878998 
	C320.649261,216.212234 321.174896,216.777390 321.700531,217.342545 
	C318.541260,221.124084 314.343079,221.845825 309.563049,220.989288 
	C311.146362,220.152481 312.915314,219.727020 314.684296,219.301575 
	C314.637085,218.819504 314.589874,218.337433 314.542694,217.855362 
	C311.916779,217.855362 309.290863,217.855362 306.330811,217.855362 
	C305.565308,217.140900 304.412048,216.064529 303.258789,214.988159 
M317.916443,217.473221 
	C317.772980,217.231323 317.629486,216.989441 317.486023,216.747543 
	C317.353180,216.996780 317.061401,217.308075 317.128265,217.479370 
	C317.209534,217.687607 317.593079,217.777863 317.916443,217.473221 
z"/>
<path fill="#F7F2EB" opacity="1.000000" stroke="none" 
	d="
M321.979736,217.192535 
	C321.174896,216.777390 320.649261,216.212234 320.090271,215.247284 
	C323.989136,211.741348 325.205292,206.899338 323.020752,201.620316 
	C321.257233,197.358627 318.373810,194.250854 313.200562,195.065079 
	C309.703888,195.615417 306.263000,196.520309 302.414215,197.138275 
	C304.368530,195.357361 306.493683,192.889267 309.085510,192.215042 
	C315.264557,190.607605 321.413422,193.601013 324.408508,198.774963 
	C327.983734,204.951172 327.286438,210.877014 321.979736,217.192535 
z"/>
<path fill="#F7F2EB" opacity="1.000000" stroke="none" 
	d="
M303.199402,215.241119 
	C304.412048,216.064529 305.565308,217.140900 306.330811,217.855362 
	C309.290863,217.855362 311.916779,217.855362 314.542694,217.855362 
	C314.589874,218.337433 314.637085,218.819504 314.684296,219.301575 
	C312.915314,219.727020 311.146362,220.152481 309.123474,220.885010 
	C307.765930,220.902344 306.662354,220.612625 305.244690,219.794495 
	C304.281067,218.173767 303.631531,217.081482 302.981995,215.989197 
	C303.034637,215.824173 303.087311,215.659134 303.199402,215.241119 
z"/>
<path fill="#F8F7F4" opacity="1.000000" stroke="none" 
	d="
M299.751526,202.107132 
	C299.590424,204.458832 299.429321,206.810547 299.406677,209.588959 
	C298.654358,209.333771 297.107361,208.735382 297.007782,207.952835 
	C296.792572,206.261414 297.319611,204.475555 298.179626,202.389832 
	C299.127991,202.069916 299.439758,202.088531 299.751526,202.107132 
z"/>
<path fill="#F7F2EB" opacity="1.000000" stroke="none" 
	d="
M299.905823,201.847992 
	C299.439758,202.088531 299.127991,202.069916 298.348602,202.015137 
	C299.027008,200.252808 300.173035,198.526642 301.664856,196.915710 
	C301.360474,198.550247 300.710297,200.069550 299.905823,201.847992 
z"/>
<path fill="#F8F7F4" opacity="1.000000" stroke="none" 
	d="
M302.696411,215.923187 
	C303.631531,217.081482 304.281067,218.173767 304.959625,219.591095 
	C303.852051,218.668228 302.715454,217.420334 301.785522,215.809631 
	C302.131683,215.583603 302.271240,215.720383 302.696411,215.923187 
z"/>
<path fill="#F7F2EB" opacity="1.000000" stroke="none" 
	d="
M298.721863,213.611420 
	C298.911194,213.193771 299.278595,213.052856 299.657623,212.959198 
	C299.694977,212.949951 299.880463,213.351288 299.868530,213.358856 
	C299.557129,213.556107 299.228668,213.726410 298.721863,213.611420 
z"/>
<path fill="#EAEFF1" opacity="1.000000" stroke="none" 
	d="
M299.071320,349.372253 
	C299.384399,343.037903 301.785583,338.190765 307.116394,334.608948 
	C321.570251,327.801788 332.836304,339.161896 330.993622,350.988251 
	C330.342438,355.167480 328.990997,359.323578 323.642639,361.130402 
	C322.612000,361.084930 322.326233,361.044586 321.979858,360.755219 
	C321.967682,360.342377 322.016174,360.178558 322.043030,360.031555 
	C322.021393,360.048431 321.965607,360.048889 322.319275,359.956116 
	C322.797211,359.426910 322.921509,358.990479 323.155273,358.429321 
	C323.436523,358.152588 323.636658,358.066010 324.222717,357.950775 
	C329.612244,352.235321 329.808411,345.739227 324.980988,339.638489 
	C323.727600,338.591034 322.614380,337.855591 321.199402,336.865662 
	C314.908051,335.332886 309.110443,334.850830 304.769653,340.470062 
	C301.050720,345.284302 301.123383,350.726013 305.048828,357.404419 
	C306.029510,358.672089 306.958221,359.546265 308.187378,361.096619 
	C308.466064,362.265564 308.444244,362.758331 308.422424,363.251129 
	C302.890320,360.423798 300.198212,355.649200 299.071320,349.372253 
z"/>
<path fill="#407182" opacity="1.000000" stroke="none" 
	d="
M322.064697,360.014709 
	C322.016174,360.178558 321.967682,360.342377 321.739502,361.072937 
	C317.769135,361.685516 313.976227,361.685425 310.192719,361.874390 
	C309.922668,361.887848 309.721802,363.287109 309.488770,364.042023 
	C309.146240,363.769989 308.803741,363.497955 308.441833,363.238525 
	C308.444244,362.758331 308.466064,362.265564 308.538483,360.883423 
	C313.080963,360.000946 317.572815,360.007843 322.064697,360.014709 
z"/>
<path fill="#EFF4F5" opacity="1.000000" stroke="none" 
	d="
M309.913086,364.095306 
	C309.721802,363.287109 309.922668,361.887848 310.192719,361.874390 
	C313.976227,361.685425 317.769135,361.685516 321.800110,361.321960 
	C322.326233,361.044586 322.612000,361.084930 323.318481,361.238678 
	C319.924683,365.412537 315.267578,365.434906 309.913086,364.095306 
z"/>
<path fill="#EFF4F5" opacity="1.000000" stroke="none" 
	d="
M224.888336,40.551987 
	C217.714355,53.255829 204.908432,53.930363 196.380371,47.008289 
	C188.246201,35.673580 191.748367,22.110235 203.288620,18.161222 
	C215.294510,14.052889 229.355728,24.889414 224.888336,40.551987 
M217.467422,43.376617 
	C217.661194,43.800827 217.854980,44.225040 218.048782,44.649254 
	C218.368500,44.206955 218.688217,43.764656 219.617844,42.865540 
	C220.306137,41.552658 221.187057,40.304008 221.649918,38.915955 
	C223.863647,32.277370 220.927841,25.078207 214.865005,22.007755 
	C208.912216,18.993031 201.500656,20.900932 197.611923,26.298346 
	C194.141083,31.115770 193.324936,40.187939 199.970459,45.084808 
	C206.946030,50.114105 209.831360,50.298813 214.446030,46.657558 
	C210.087936,45.809647 205.119720,44.843029 200.059937,43.099869 
	C200.188095,39.552799 200.940536,36.292538 205.252289,35.978748 
	C215.142960,35.258942 215.745422,35.671585 217.467422,43.376617 
z"/>
<path fill="#3D7283" opacity="1.000000" stroke="none" 
	d="
M119.563202,298.996704 
	C119.888672,299.394226 120.238503,299.795105 120.977142,300.589661 
	C121.902229,301.023499 122.438522,301.063629 122.974808,301.103760 
	C122.974808,301.103760 122.591568,301.093140 122.493568,301.557922 
	C122.858650,302.394897 123.321739,302.767059 123.784821,303.139252 
	C128.066315,309.039398 128.276306,312.622925 124.187744,317.626831 
	C122.010521,311.693756 117.234604,312.586761 113.415741,313.339233 
	C111.731514,313.671082 110.637527,316.998474 109.137207,319.212189 
	C108.675331,319.627655 108.351807,319.796814 108.028290,319.965973 
	C108.028290,319.965973 108.003815,320.004181 107.969589,319.608398 
	C103.631096,310.896332 105.030754,305.847687 113.427017,300.791016 
	C115.715981,300.157379 117.611610,299.555267 119.507248,298.953186 
	C119.507248,298.953186 119.587547,299.000061 119.563202,298.996704 
M120.019501,306.705780 
	C118.438599,305.656555 116.951561,304.162079 115.226151,303.798370 
	C114.617867,303.670166 112.586067,306.402496 112.726837,307.658081 
	C112.881783,309.040161 114.789238,310.225769 115.933228,311.496979 
	C117.305702,310.150452 118.678177,308.803955 120.019501,306.705780 
z"/>
<path fill="#F7F8F8" opacity="1.000000" stroke="none" 
	d="
M109.275558,318.965881 
	C110.637527,316.998474 111.731514,313.671082 113.415741,313.339233 
	C117.234604,312.586761 122.010521,311.693756 123.802902,317.690033 
	C122.112671,319.198364 120.324593,320.327911 118.629112,321.582550 
	C118.535950,321.651489 119.213135,322.761383 119.725327,323.601807 
	C117.904633,323.928436 115.890350,324.040009 113.595230,323.726990 
	C113.376343,322.416199 113.438278,321.530060 113.500214,320.643890 
	C113.112762,320.616547 112.725311,320.589203 112.337860,320.561859 
	C112.198517,321.600067 112.059174,322.638306 111.919830,323.676514 
	C111.500900,323.507782 111.081970,323.339081 110.503944,322.710846 
	C109.988419,321.156158 109.631989,320.061035 109.275558,318.965881 
z"/>
<path fill="#DEE6E9" opacity="1.000000" stroke="none" 
	d="
M113.033684,300.822510 
	C105.030754,305.847687 103.631096,310.896332 107.988991,319.596069 
	C104.587883,318.703552 102.528412,314.477295 103.371414,309.903900 
	C104.332466,304.690033 107.045700,300.799500 112.655258,299.373962 
	C113.011642,300.054108 113.022659,300.438324 113.033684,300.822510 
z"/>
<path fill="#FCFCFC" opacity="1.000000" stroke="none" 
	d="
M113.427017,300.791016 
	C113.022659,300.438324 113.011642,300.054108 113.011307,299.381866 
	C114.930534,299.071411 116.839096,299.049042 119.127449,298.989929 
	C117.611610,299.555267 115.715981,300.157379 113.427017,300.791016 
z"/>
<path fill="#DEE6E9" opacity="1.000000" stroke="none" 
	d="
M109.137207,319.212189 
	C109.631989,320.061035 109.988419,321.156158 110.211014,322.538757 
	C109.191940,322.034363 108.306702,321.242462 107.724869,320.208282 
	C108.351807,319.796814 108.675331,319.627655 109.137207,319.212189 
z"/>
<path fill="#DEE6E9" opacity="1.000000" stroke="none" 
	d="
M112.079567,323.799500 
	C112.059174,322.638306 112.198517,321.600067 112.337860,320.561859 
	C112.725311,320.589203 113.112762,320.616547 113.500214,320.643890 
	C113.438278,321.530060 113.376343,322.416199 113.171875,323.617493 
	C113.029350,323.932617 112.633232,324.011810 112.633232,324.011810 
	C112.633232,324.011810 112.239304,323.922455 112.079567,323.799500 
z"/>
<path fill="#EFF4F5" opacity="1.000000" stroke="none" 
	d="
M308.248779,111.536545 
	C307.236267,113.400818 306.223724,115.265099 305.278870,117.588257 
	C302.491394,118.091492 299.636292,118.135841 296.580322,117.787376 
	C299.395233,113.526031 294.724365,115.138588 293.974854,113.605545 
	C295.504456,111.287529 296.955322,107.764847 298.509460,107.718681 
	C301.914520,107.617554 306.850250,105.798141 308.248779,111.536545 
z"/>
<path fill="#DEE6E9" opacity="1.000000" stroke="none" 
	d="
M293.942993,113.977676 
	C294.724365,115.138588 299.395233,113.526031 296.227966,117.607605 
	C294.445160,116.720192 292.813873,115.619743 290.954834,114.270439 
	C288.149750,109.473404 286.887817,104.875130 289.657196,99.870483 
	C294.848572,90.488930 306.448517,90.434273 312.265930,100.403992 
	C311.787201,101.176437 311.559235,101.361404 311.157837,101.258736 
	C306.413635,94.443039 300.007446,93.080048 294.529449,97.470108 
	C289.347961,101.622543 289.103912,108.492401 293.942993,113.977676 
z"/>
<path fill="#DEE6E9" opacity="1.000000" stroke="none" 
	d="
M313.287476,101.126282 
	C313.570251,101.937805 313.725616,102.635666 313.858185,103.690926 
	C313.435577,104.031227 313.035797,104.014130 312.227417,103.698532 
	C311.656311,102.782143 311.493805,102.164253 311.331268,101.546364 
	C311.559235,101.361404 311.787201,101.176437 312.377808,100.737305 
	C312.915558,100.631699 313.055450,100.808189 313.287476,101.126282 
z"/>
<path fill="#FCFCFC" opacity="1.000000" stroke="none" 
	d="
M124.056107,302.953674 
	C123.321739,302.767059 122.858650,302.394897 122.460556,301.746765 
	C123.126167,301.903229 123.726776,302.335632 124.056107,302.953674 
z"/>
<path fill="#FCFCFC" opacity="1.000000" stroke="none" 
	d="
M122.793320,300.828491 
	C122.438522,301.063629 121.902229,301.023499 121.387497,300.518494 
	C121.809975,300.220123 122.210899,300.386658 122.793320,300.828491 
z"/>
<path fill="#3D7283" opacity="1.000000" stroke="none" 
	d="
M311.157837,101.258736 
	C311.493805,102.164253 311.656311,102.782143 311.927246,103.701035 
	C311.590332,106.875114 313.034058,110.495705 308.577301,111.723984 
	C306.850250,105.798141 301.914520,107.617554 298.509460,107.718681 
	C296.955322,107.764847 295.504456,111.287529 293.974854,113.605545 
	C289.103912,108.492401 289.347961,101.622543 294.529449,97.470108 
	C300.007446,93.080048 306.413635,94.443039 311.157837,101.258736 
M298.677094,99.290810 
	C299.049072,101.321045 299.421021,103.351288 299.792969,105.381516 
	C301.121582,105.133179 303.020447,105.327461 303.640259,104.528938 
	C304.490784,103.433235 305.047729,100.594208 304.539429,100.247276 
	C303.094727,99.261215 301.045715,99.160530 298.677094,99.290810 
z"/>
<path fill="#EDA764" opacity="1.000000" stroke="none" 
	d="
M374.845428,210.443329 
	C380.001465,208.082764 386.122864,209.691223 389.781464,214.367935 
	C393.404633,218.999359 393.012878,224.808029 388.342224,230.078247 
	C387.467255,225.004364 384.361847,223.375183 379.355988,223.362213 
	C378.955139,222.770752 378.962189,222.498367 379.347900,222.163010 
	C382.779297,221.424072 384.520264,219.600800 383.908508,216.417496 
	C383.182587,212.640244 380.239624,212.683136 376.917419,212.939636 
	C376.000061,212.008698 375.422760,211.226013 374.845428,210.443329 
z"/>
<path fill="#E89C54" opacity="1.000000" stroke="none" 
	d="
M378.969818,222.225998 
	C378.962189,222.498367 378.955139,222.770752 378.952759,223.244614 
	C375.471191,223.533875 372.686523,224.578934 371.597992,228.366119 
	C371.455933,228.860275 370.258911,229.051193 369.294434,229.188416 
	C368.750122,228.375809 368.461853,227.757339 368.023590,226.931564 
	C367.804688,223.885727 367.735748,221.047226 367.770386,217.793442 
	C369.976746,215.161392 372.079529,212.944595 374.513855,210.585571 
	C375.422760,211.226013 376.000061,212.008698 376.713623,213.228531 
	C373.120544,217.617676 376.050659,219.920486 378.969818,222.225998 
z"/>
<path fill="#EDA764" opacity="1.000000" stroke="none" 
	d="
M387.736542,230.033630 
	C387.736481,230.444824 387.472290,230.925339 387.029297,231.198883 
	C387.057831,230.695587 387.265137,230.399261 387.736542,230.033630 
z"/>
<path fill="#ECA35E" opacity="1.000000" stroke="none" 
	d="
M31.251823,203.958206 
	C25.988842,197.512161 25.925648,191.469177 31.066156,186.203964 
	C35.616474,181.543274 42.075722,180.981064 47.257133,184.794708 
	C53.196007,189.165894 54.138592,195.558060 49.350933,202.897568 
	C48.614231,203.027328 48.431019,203.006821 48.199062,202.599304 
	C46.311184,196.806900 44.306160,195.746048 36.875477,196.930634 
	C33.098160,197.532806 31.858631,200.189072 32.230568,203.864014 
	C31.686995,203.918106 31.469408,203.938156 31.251823,203.958206 
M43.214302,193.552109 
	C42.842381,191.226120 42.470459,188.900131 42.098541,186.574142 
	C40.452065,186.904831 38.074150,186.700409 37.342575,187.700424 
	C36.408951,188.976608 36.011547,192.187775 36.804310,192.841614 
	C38.172634,193.970123 40.636711,193.770020 43.214302,193.552109 
z"/>
<path fill="#EFAA67" opacity="1.000000" stroke="none" 
	d="
M46.006500,206.006622 
	C41.696434,209.243713 37.472462,208.062424 33.162086,205.348694 
	C33.053806,204.938919 33.248695,204.722580 33.635307,204.816833 
	C37.973656,205.225708 41.925392,205.540314 45.909367,205.892914 
	C45.941605,205.930939 46.006500,206.006622 46.006500,206.006622 
z"/>
<path fill="#EFAA67" opacity="1.000000" stroke="none" 
	d="
M31.363003,204.199371 
	C31.469408,203.938156 31.686995,203.918106 32.387112,203.974960 
	C33.065559,204.236084 33.191910,204.459656 33.248695,204.722580 
	C33.248695,204.722580 33.053806,204.938919 32.955551,205.048096 
	C32.396259,204.918381 31.935223,204.679459 31.363003,204.199371 
z"/>
<path fill="#EFAA67" opacity="1.000000" stroke="none" 
	d="
M46.994316,204.994736 
	C46.847446,205.304016 46.700577,205.613297 46.280102,205.964600 
	C46.006500,206.006622 45.941605,205.930939 45.990547,205.647675 
	C46.357250,205.240372 46.675011,205.116348 46.996296,204.996063 
	C46.999825,204.999802 46.994312,204.994736 46.994316,204.994736 
z"/>
<path fill="#EFAA67" opacity="1.000000" stroke="none" 
	d="
M47.985100,203.985840 
	C47.843063,204.307388 47.701027,204.628952 47.276649,204.972626 
	C46.994312,204.994736 46.999825,204.999802 47.067162,204.751038 
	C47.415207,204.328278 47.695908,204.154282 47.981689,203.984680 
	C47.986767,203.989105 47.985096,203.985840 47.985100,203.985840 
z"/>
<path fill="#EFAA67" opacity="1.000000" stroke="none" 
	d="
M48.247803,202.986313 
	C48.431019,203.006821 48.614231,203.027328 49.069710,203.107697 
	C49.081921,203.444687 48.821869,203.721817 48.273457,203.992401 
	C47.985096,203.985840 47.986767,203.989105 48.005569,203.724304 
	C48.098846,203.301758 48.173325,203.144043 48.247803,202.986313 
z"/>
<path fill="#396779" opacity="1.000000" stroke="none" 
	d="
M219.125427,373.005066 
	C223.447220,380.206512 223.212784,385.991364 219.707169,388.960632 
	C216.661346,386.961365 213.991516,383.730865 211.274979,383.691071 
	C201.455933,383.547302 200.881149,384.282837 198.544617,390.827515 
	C193.375504,384.474701 193.852341,376.822540 199.761490,371.299988 
	C205.196716,366.220367 212.150314,366.734589 219.125427,373.005066 
M212.674057,379.612640 
	C212.149582,377.131256 211.922302,374.506012 210.849808,372.289856 
	C210.635376,371.846771 206.002609,372.416473 205.513367,373.484222 
	C204.690994,375.279022 204.864014,378.252655 205.880081,379.994171 
	C207.328506,382.476776 209.946793,382.453979 212.674057,379.612640 
z"/>
<path fill="#E8EEF0" opacity="1.000000" stroke="none" 
	d="
M208.092163,393.955994 
	C210.493271,393.594513 212.487442,393.233490 214.481598,392.872467 
	C214.698807,393.207336 214.916016,393.542175 215.133224,393.877045 
	C213.553528,394.592529 211.999619,395.830658 210.388504,395.910248 
	C207.411606,396.057251 203.818298,397.038666 201.793167,392.618134 
	C204.123291,393.147400 205.904236,393.551910 208.092163,393.955994 
z"/>
<path fill="#E8EEF0" opacity="1.000000" stroke="none" 
	d="
M217.372772,391.892639 
	C217.074814,392.499115 216.809708,392.849670 216.544601,393.200256 
	C216.405472,392.843933 216.266342,392.487579 216.127213,392.131256 
	C216.553345,391.966431 216.979477,391.801605 217.372772,391.892639 
z"/>
<path fill="#E8EEF0" opacity="1.000000" stroke="none" 
	d="
M199.700867,392.601898 
	C199.830215,392.435272 200.055862,392.410400 200.281509,392.385498 
	C200.120056,392.504852 199.958603,392.624237 199.700867,392.601898 
z"/>
<path fill="#F3F5F5" opacity="1.000000" stroke="none" 
	d="
M99.978455,64.944061 
	C102.125679,64.050407 104.330658,62.760933 106.094818,63.208591 
	C107.232483,63.497284 108.734894,66.730141 108.263351,67.934853 
	C107.584343,69.669601 105.176598,71.984322 103.653824,71.881058 
	C100.036911,71.635788 98.913864,68.782150 99.978455,64.944061 
z"/>
<path fill="#EAECED" opacity="1.000000" stroke="none" 
	d="
M96.979233,82.706871 
	C96.489639,82.731049 95.983025,82.466904 95.213531,82.088318 
	C95.030418,81.807175 95.110191,81.640472 95.316879,81.227333 
	C95.949936,81.460106 96.456078,81.939323 96.979233,82.706871 
z"/>
<path fill="#EFF4F5" opacity="1.000000" stroke="none" 
	d="
M106.165161,215.099884 
	C103.768936,212.461792 103.493797,209.788513 106.165672,208.011505 
	C107.412064,207.182556 110.323784,207.274048 111.394142,208.201813 
	C112.501923,209.162064 113.040649,211.916901 112.495026,213.394409 
	C111.546684,215.962448 109.261208,217.130081 106.165161,215.099884 
z"/>
<path fill="#E8EEF0" opacity="1.000000" stroke="none" 
	d="
M114.638397,227.096634 
	C114.364861,226.826157 114.252380,226.424210 114.196663,226.014542 
	C114.187012,225.943588 114.417648,225.839981 114.537292,225.751465 
	C114.631096,226.155151 114.724892,226.558853 114.638397,227.096634 
z"/>
<path fill="#F7F2EE" opacity="1.000000" stroke="none" 
	d="
M308.001465,203.473755 
	C308.937408,201.307434 309.957611,199.531342 310.977814,197.755264 
	C312.474670,198.773239 314.793243,199.522995 315.237640,200.884476 
	C315.683746,202.251083 314.261749,204.227448 313.658417,205.936584 
	C311.800842,205.245712 309.943268,204.554840 308.001465,203.473755 
z"/>
<path fill="#F7F2EB" opacity="1.000000" stroke="none" 
	d="
M317.881165,217.696198 
	C317.593079,217.777863 317.209534,217.687607 317.128265,217.479370 
	C317.061401,217.308075 317.353180,216.996780 317.486023,216.747543 
	C317.629486,216.989441 317.772980,217.231323 317.881165,217.696198 
z"/>
<path fill="#345568" opacity="1.000000" stroke="none" 
	d="
M304.996857,357.010925 
	C301.123383,350.726013 301.050720,345.284302 304.769653,340.470062 
	C309.110443,334.850830 314.908051,335.332886 321.067505,337.269409 
	C320.538696,342.428650 323.550995,339.805267 325.121155,339.950500 
	C329.808411,345.739227 329.612244,352.235321 324.200623,357.577942 
	C323.167999,352.992615 321.646454,350.751923 316.351349,350.180511 
	C310.001221,349.495209 307.508698,352.647736 304.996857,357.010925 
M318.851807,346.463196 
	C320.212982,343.879578 320.681488,341.046173 317.753052,339.622406 
	C316.289581,338.910858 312.951172,339.353638 312.247009,340.436188 
	C311.269745,341.938599 311.232880,344.942780 312.130066,346.564606 
	C313.457886,348.964966 316.053955,349.444885 318.851807,346.463196 
z"/>
<path fill="#EFF4F5" opacity="1.000000" stroke="none" 
	d="
M305.048828,357.404419 
	C307.508698,352.647736 310.001221,349.495209 316.351349,350.180511 
	C321.646454,350.751923 323.167999,352.992615 323.842987,357.672058 
	C323.636658,358.066010 323.436523,358.152588 322.804871,358.582550 
	C322.218536,359.256622 322.092072,359.652740 321.965607,360.048889 
	C321.965607,360.048889 322.021393,360.048431 322.043030,360.031555 
	C317.572815,360.007843 313.080963,360.000946 308.237976,360.207245 
	C306.958221,359.546265 306.029510,358.672089 305.048828,357.404419 
z"/>
<path fill="#3A596D" opacity="1.000000" stroke="none" 
	d="
M324.980988,339.638489 
	C323.550995,339.805267 320.538696,342.428650 321.369263,337.523834 
	C322.614380,337.855591 323.727600,338.591034 324.980988,339.638489 
z"/>
<path fill="#407182" opacity="1.000000" stroke="none" 
	d="
M322.319275,359.956116 
	C322.092072,359.652740 322.218536,359.256622 322.695404,358.707245 
	C322.921509,358.990479 322.797211,359.426910 322.319275,359.956116 
z"/>
<path fill="#376576" opacity="1.000000" stroke="none" 
	d="
M199.598679,44.546646 
	C193.324936,40.187939 194.141083,31.115770 197.611923,26.298346 
	C201.500656,20.900932 208.912216,18.993031 214.865005,22.007755 
	C220.927841,25.078207 223.863647,32.277370 221.649918,38.915955 
	C221.187057,40.304008 220.306137,41.552658 219.033234,43.006348 
	C218.255737,43.115971 218.062866,43.084782 217.869995,43.053596 
	C215.745422,35.671585 215.142960,35.258942 205.252289,35.978748 
	C200.940536,36.292538 200.188095,39.552799 199.947449,43.639153 
	C199.834976,44.178436 199.598679,44.546646 199.598679,44.546646 
M204.181503,29.407978 
	C206.247070,34.220303 209.639053,35.629086 212.024323,32.440434 
	C213.038635,31.084490 213.531143,28.654453 213.053955,27.077806 
	C212.655396,25.760941 209.969528,23.833294 209.221466,24.178757 
	C207.270233,25.079878 205.826553,27.080013 204.181503,29.407978 
z"/>
<path fill="#407182" opacity="1.000000" stroke="none" 
	d="
M199.993256,44.027424 
	C205.119720,44.843029 210.087936,45.809647 214.446030,46.657558 
	C209.831360,50.298813 206.946030,50.114105 199.784576,44.815727 
	C199.598679,44.546646 199.834976,44.178436 199.993256,44.027424 
z"/>
<path fill="#EAEFF1" opacity="1.000000" stroke="none" 
	d="
M217.668701,43.215107 
	C218.062866,43.084782 218.255737,43.115971 218.728271,43.234760 
	C218.688217,43.764656 218.368500,44.206955 218.048767,44.649254 
	C217.854980,44.225040 217.661194,43.800827 217.668701,43.215107 
z"/>
<path fill="#EFF4F5" opacity="1.000000" stroke="none" 
	d="
M120.035080,307.081604 
	C118.678177,308.803955 117.305702,310.150452 115.933220,311.496948 
	C114.789238,310.225769 112.881783,309.040161 112.726837,307.658081 
	C112.586067,306.402496 114.617867,303.670166 115.226151,303.798370 
	C116.951561,304.162079 118.438599,305.656555 120.035080,307.081604 
z"/>
<path fill="#F3F7F8" opacity="1.000000" stroke="none" 
	d="
M298.955841,99.001068 
	C301.045715,99.160530 303.094727,99.261215 304.539429,100.247276 
	C305.047729,100.594208 304.490784,103.433235 303.640259,104.528938 
	C303.020447,105.327461 301.121582,105.133179 299.792969,105.381516 
	C299.421021,103.351288 299.049072,101.321045 298.955841,99.001068 
z"/>
<path fill="#F8F7F4" opacity="1.000000" stroke="none" 
	d="
M379.347900,222.163010 
	C376.050659,219.920486 373.120544,217.617676 377.053650,213.376770 
	C380.239624,212.683136 383.182587,212.640244 383.908508,216.417496 
	C384.520264,219.600800 382.779297,221.424072 379.347900,222.163010 
z"/>
<path fill="#F7F8F8" opacity="1.000000" stroke="none" 
	d="
M48.199062,202.599304 
	C48.173325,203.144043 48.098846,203.301758 48.000488,203.719879 
	C47.695908,204.154282 47.415207,204.328278 47.063637,204.747299 
	C46.675011,205.116348 46.357250,205.240372 45.958309,205.609650 
	C41.925392,205.540314 37.973656,205.225708 33.635307,204.816833 
	C33.191910,204.459656 33.065559,204.236084 32.713097,203.940918 
	C31.858631,200.189072 33.098160,197.532806 36.875477,196.930634 
	C44.306160,195.746048 46.311184,196.806900 48.199062,202.599304 
z"/>
<path fill="#F8F7F4" opacity="1.000000" stroke="none" 
	d="
M42.927670,193.839752 
	C40.636711,193.770020 38.172634,193.970123 36.804310,192.841614 
	C36.011547,192.187775 36.408951,188.976608 37.342575,187.700424 
	C38.074150,186.700409 40.452065,186.904831 42.098541,186.574142 
	C42.470459,188.900131 42.842381,191.226120 42.927670,193.839752 
z"/>
<path fill="#F3F5F5" opacity="1.000000" stroke="none" 
	d="
M212.397003,379.904724 
	C209.946793,382.453979 207.328506,382.476776 205.880081,379.994171 
	C204.864014,378.252655 204.690994,375.279022 205.513367,373.484222 
	C206.002609,372.416473 210.635376,371.846771 210.849808,372.289856 
	C211.922302,374.506012 212.149582,377.131256 212.397003,379.904724 
z"/>
<path fill="#F3F5F5" opacity="1.000000" stroke="none" 
	d="
M318.615173,346.801422 
	C316.053955,349.444885 313.457886,348.964966 312.130066,346.564606 
	C311.232880,344.942780 311.269745,341.938599 312.247009,340.436188 
	C312.951172,339.353638 316.289581,338.910858 317.753052,339.622406 
	C320.681488,341.046173 320.212982,343.879578 318.615173,346.801422 
z"/>
<path fill="#F3F5F5" opacity="1.000000" stroke="none" 
	d="
M204.180969,29.024910 
	C205.826553,27.080013 207.270233,25.079878 209.221466,24.178757 
	C209.969528,23.833294 212.655396,25.760941 213.053955,27.077806 
	C213.531143,28.654453 213.038635,31.084490 212.024323,32.440434 
	C209.639053,35.629086 206.247070,34.220303 204.180969,29.024910 
z"/>
</svg>